<?xml version="1.0" encoding="utf-8"?>
<!-- Generator: Adobe Illustrator 23.0.0, SVG Export Plug-In . SVG Version: 6.00 Build 0)  -->
<svg version="1.1" id="Calque_1" xmlns="http://www.w3.org/2000/svg" xmlns:xlink="http://www.w3.org/1999/xlink" x="0px" y="0px"
	 viewBox="0 0 56 38" style="enable-background:new 0 0 56 38;" xml:space="preserve">
<style type="text/css">
	.st0{fill:#D80027;}
	.st1{fill:#F0F0F0;}
</style>
<g>
	<rect y="0" class="st0" width="56" height="37.3"/>
	<circle class="st1" cx="28" cy="18.7" r="10.5"/>
	<g>
		<polygon class="st0" points="29.2,14.6 31.1,17.1 34,16.2 32.2,18.7 34,21.1 31.1,20.2 29.2,22.7 29.2,19.6 26.3,18.7 29.2,17.7 
					"/>
		<path class="st0" d="M30.4,24.9c-3.4,0-6.2-2.8-6.2-6.2s2.8-6.2,6.2-6.2c1.1,0,2.1,0.3,3,0.7C31.9,11.9,30,11,28,11
			c-4.2,0-7.6,3.4-7.6,7.6s3.4,7.6,7.6,7.6c2.1,0,4-0.8,5.3-2.2C32.4,24.6,31.4,24.9,30.4,24.9z"/>
	</g>
	<g>
	</g>
	<g>
	</g>
	<g>
	</g>
	<g>
	</g>
	<g>
	</g>
	<g>
	</g>
	<g>
	</g>
	<g>
	</g>
	<g>
	</g>
	<g>
	</g>
	<g>
	</g>
	<g>
	</g>
	<g>
	</g>
	<g>
	</g>
	<g>
	</g>
</g>
</svg>
