<?xml version="1.0" encoding="utf-8"?>
<!-- Generator: Adobe Illustrator 23.0.0, SVG Export Plug-In . SVG Version: 6.00 Build 0)  -->
<svg version="1.1" id="Calque_1" xmlns="http://www.w3.org/2000/svg" xmlns:xlink="http://www.w3.org/1999/xlink" x="0px" y="0px"
	 viewBox="0 0 1920 1080" style="enable-background:new 0 0 1920 1080;" xml:space="preserve">
 <filter id="myFilter">
        <feGaussianBlur stDeviation="5"></feGaussianBlur>
    </filter>
<g>
	<linearGradient id="SVGID_1_" gradientUnits="userSpaceOnUse" x1="454.9308" y1="635.1649" x2="1665.8936" y2="635.1649">
		<stop  offset="0" style="stop-color:#B6FBFF"/>
		<stop  offset="0.1801" style="stop-color:#8ECAE5"/>
		<stop  offset="0.486" style="stop-color:#4570B4"/>
		<stop  offset="0.9994" style="stop-color:#B6FBFF"/>
	</linearGradient>
	<path filter="url(#myFilter)" style="fill:url(#SVGID_1_);" d="M1900.23,853.7c-0.85-1.66-2.63-2.54-4.38-2.31l-25.14-95c0.11-0.05,0.21-0.09,0.32-0.15
		c2.12-1.08,2.96-3.66,1.88-5.78c-0.72-1.41-2.11-2.25-3.58-2.34l-7.53-105.3c0.37-0.08,0.74-0.2,1.09-0.38
		c2.12-1.08,2.96-3.66,1.88-5.78c-1.08-2.12-3.66-2.96-5.78-1.88c-0.58,0.29-1.05,0.7-1.43,1.17l-64.52-38.46
		c0.49-1.13,0.49-2.47-0.11-3.66c-1.07-2.11-3.66-2.96-5.77-1.88c-0.44,0.23-0.82,0.52-1.15,0.85l-41.44-30.63
		c0.67-1.21,0.75-2.71,0.08-4.04c-0.5-0.97-1.31-1.67-2.26-2.04l17.69-70.15c0.81,0.1,1.66-0.04,2.45-0.44
		c2.12-1.08,2.96-3.66,1.88-5.78c-0.9-1.77-2.85-2.64-4.71-2.25l-17.77-51.19c0.01-0.01,0.02-0.01,0.03-0.01
		c2.12-1.08,2.96-3.66,1.88-5.78c-1.08-2.12-3.67-2.96-5.78-1.88c-1.14,0.58-1.9,1.6-2.2,2.74l-66.79-8.6
		c0-0.65-0.15-1.32-0.46-1.95c-1.08-2.11-3.66-2.96-5.78-1.88c-2.12,1.08-2.96,3.66-1.88,5.78c0.04,0.08,0.09,0.15,0.13,0.23
		l-107.71,84.03l-0.33-0.27l-0.17,0.65l-1.75,1.37l1.48-0.32l-19.98,77.9c-0.82-0.1-1.68,0.03-2.47,0.44
		c-1.63,0.83-2.49,2.55-2.32,4.26l-62.13,14.51c-0.06-0.15-0.12-0.3-0.19-0.44c-1.08-2.12-3.67-2.96-5.78-1.88
		c-1.93,0.98-2.79,3.22-2.12,5.2l-172.76-14.77c-0.02-0.59-0.17-1.2-0.46-1.76c-1.08-2.12-3.67-2.96-5.78-1.88
		c-2.12,1.07-2.96,3.66-1.88,5.78c0.41,0.81,1.04,1.43,1.79,1.83L1227,723.52c-0.96-0.23-2.01-0.14-2.96,0.34
		c-0.87,0.45-1.53,1.15-1.92,1.97l-57.69-19.03c0.18-0.91,0.07-1.87-0.39-2.76c-1.08-2.12-3.66-2.96-5.78-1.88
		c-1.48,0.75-2.33,2.24-2.35,3.79l-54.9,6.61c-0.08-0.31-0.19-0.61-0.33-0.89c-1.08-2.12-3.67-2.96-5.78-1.88
		c-2.12,1.08-2.96,3.67-1.88,5.78c0.09,0.16,0.18,0.31,0.28,0.46l-74.55,65.94c-1.28-1.12-3.16-1.41-4.77-0.59
		c-2.12,1.07-2.96,3.66-1.88,5.78c0.7,1.37,2.04,2.21,3.48,2.33l2.69,57.01c-0.47,0.06-0.95,0.2-1.4,0.43
		c-1.95,0.99-2.81,3.26-2.1,5.27l-32.39,13.07c-1.34-0.18-2.64,0.29-3.56,1.19l-57.09-44.69c0.22-0.37,0.39-0.78,0.49-1.23
		c0.52-2.3-0.92-4.6-3.22-5.12c-1.7-0.39-3.39,0.3-4.37,1.61l-11.16-5.04l-61.93-27.92c0.46-2.27-0.98-4.5-3.24-5.01
		c-2.3-0.52-4.6,0.92-5.12,3.23c-0.15,0.67-0.13,1.34,0.02,1.96l-64.06,23.35c-0.56-1.05-1.56-1.86-2.81-2.14c0,0-0.01,0-0.01,0
		l3.59-39.25l-94.49-9.03c-0.06-1.9-1.39-3.59-3.33-4.02c-1.01-0.23-2.03-0.08-2.88,0.35l-30.52-44.76
		c0.64-0.57,1.12-1.34,1.33-2.25c0.52-2.3-0.92-4.6-3.23-5.12c-1.07-0.24-2.14-0.06-3.03,0.44l-52.75-71.03
		c0.58-0.56,1.01-1.28,1.2-2.13c0.52-2.3-0.92-4.6-3.22-5.12c-2.31-0.52-4.6,0.92-5.12,3.23c-0.21,0.9-0.1,1.81,0.23,2.6
		l-50.65,29.45c-0.58-0.76-1.43-1.33-2.44-1.56c-2.02-0.46-4.03,0.59-4.85,2.41l-133.97-40.84l-0.16,0.52
		c0.33-1.44-0.12-2.89-1.07-3.89l34.8-42.73c0.39,0.24,0.83,0.43,1.3,0.54c2.31,0.52,4.6-0.92,5.12-3.23
		c0.52-2.3-0.92-4.6-3.23-5.12c-1.36-0.31-2.71,0.07-3.7,0.9l-87.69-80.63c0.28-0.42,0.49-0.89,0.61-1.41
		c0.39-1.71-0.31-3.4-1.63-4.38l25.6-43.41c0.16,0.06,0.33,0.12,0.51,0.15c2.31,0.52,4.6-0.92,5.12-3.22
		c0.52-2.31-0.92-4.6-3.22-5.12c-1.23-0.28-2.46,0.01-3.41,0.68l-102.79-99.73c0.35-0.46,0.61-1.01,0.75-1.61
		c0.52-2.3-0.92-4.6-3.23-5.12c-2.31-0.52-4.6,0.92-5.12,3.23c-0.41,1.81,0.4,3.62,1.89,4.56l-41.27,88.73
		c-0.11-0.03-0.22-0.07-0.34-0.1c-2.31-0.52-4.6,0.92-5.12,3.22c-0.35,1.54,0.18,3.07,1.25,4.07l-61.31,85.41
		c-0.33-0.18-0.69-0.32-1.08-0.41c-2.31-0.53-4.6,0.92-5.12,3.22c-0.52,2.3,0.92,4.6,3.23,5.12c0.63,0.14,1.25,0.13,1.84,0.01
		l24.89,70.54c-1.1,0.56-1.95,1.58-2.24,2.87c-0.52,2.3,0.92,4.6,3.23,5.12c0.48,0.11,0.96,0.13,1.42,0.08l12.21,49.84
		c-1.28,0.5-2.3,1.6-2.63,3.04c-0.24,1.06-0.06,2.12,0.42,3L113.79,696c-0.56-0.59-1.3-1.03-2.16-1.23
		c-2.31-0.52-4.6,0.92-5.12,3.22c-0.44,1.93,0.5,3.84,2.16,4.73l-19.01,50.5c-0.01,0-0.02,0-0.03-0.01
		c-2.31-0.52-4.6,0.92-5.12,3.23c-0.52,2.3,0.92,4.6,3.23,5.12c1.24,0.28,2.47-0.01,3.43-0.7L136.83,810
		c-0.42,0.5-0.73,1.1-0.88,1.78c-0.52,2.3,0.92,4.6,3.23,5.12c2.3,0.52,4.6-0.92,5.12-3.22c0.02-0.09,0.03-0.18,0.05-0.26
		l135.98,4.28l0.08,0.42l0.55-0.4l2.21,0.07l-1.34-0.7l64.91-46.9c0.57,0.6,1.31,1.04,2.17,1.24c1.77,0.4,3.53-0.36,4.49-1.78
		l56.8,28.47c-0.05,0.15-0.1,0.3-0.13,0.46c-0.52,2.31,0.92,4.6,3.23,5.12c2.1,0.48,4.18-0.68,4.94-2.63l122.84,121.35
		c-0.36,0.47-0.63,1.02-0.77,1.64c-0.52,2.3,0.92,4.6,3.23,5.12c2.31,0.52,4.6-0.92,5.12-3.23c0.2-0.88,0.11-1.76-0.2-2.54
		l124.74-69.71c0.59,0.79,1.45,1.39,2.48,1.62c0.95,0.21,1.9,0.09,2.73-0.29l32.04,51.31c-0.71,0.58-1.24,1.39-1.46,2.36
		c-0.52,2.3,0.92,4.6,3.23,5.12c1.61,0.36,3.21-0.23,4.21-1.41l46.24,29.91c-0.13,0.28-0.24,0.58-0.31,0.89
		c-0.52,2.31,0.92,4.6,3.23,5.12c2.31,0.52,4.6-0.92,5.12-3.22c0.04-0.18,0.06-0.35,0.08-0.52l99.06-2.99
		c0.27,1.67,1.52,3.09,3.28,3.5c2.31,0.52,4.6-0.92,5.12-3.23c0.34-1.5-0.16-2.99-1.18-4l34.25-45.36c0.4,0.26,0.85,0.45,1.34,0.56
		c2.12,0.48,4.23-0.71,4.96-2.69l56.73,18.19c-0.03,0.09-0.05,0.17-0.08,0.26c-0.52,2.31,0.92,4.6,3.23,5.12c1.51,0.34,3-0.17,4-1.2
		c0.8-0.72,1.29-1.72,1.39-2.76l72.77-2.18c0.07,0.43,0.21,0.86,0.42,1.27c1.08,2.12,3.66,2.96,5.78,1.88
		c1.56-0.79,2.42-2.41,2.34-4.04l11.85-3.29l65.73-18.22c1.11,2.04,3.64,2.84,5.73,1.78c2.11-1.07,2.96-3.66,1.88-5.78
		c-0.31-0.61-0.75-1.12-1.27-1.5l34.45-59.17c1.11,0.44,2.39,0.43,3.54-0.16c0,0,0,0,0.01,0l22.44,32.61l78.74-53.72
		c1.27,1.42,3.38,1.88,5.16,0.97c0.93-0.47,1.61-1.24,1.99-2.13l52.32,14.94c-0.13,0.86,0,1.76,0.41,2.59
		c1.08,2.12,3.67,2.96,5.78,1.88c0.99-0.5,1.69-1.34,2.06-2.29l86.34,20.95c-0.09,0.8,0.04,1.64,0.44,2.41
		c1.08,2.12,3.66,2.96,5.78,1.88c2.12-1.08,2.96-3.66,1.88-5.78c-0.42-0.83-1.08-1.46-1.85-1.86l20.18-55.26
		c0.94,0.21,1.96,0.11,2.89-0.36c1.85-0.94,2.73-3.05,2.2-4.97l129.64-54.52l-0.21-0.51c0.67,1.33,1.95,2.15,3.32,2.31l0.58,55.34
		c-0.46,0.06-0.91,0.2-1.35,0.42c-2.12,1.08-2.96,3.67-1.88,5.78c1.07,2.12,3.66,2.96,5.78,1.88c1.24-0.63,2.04-1.79,2.27-3.07
		l119.48,5.91c0.06,0.5,0.2,1,0.44,1.47c0.8,1.57,2.42,2.43,4.07,2.34l8.12,49.95c-0.17,0.06-0.33,0.13-0.49,0.21
		c-2.12,1.08-2.96,3.66-1.88,5.78c1.08,2.12,3.66,2.96,5.78,1.88c1.13-0.58,1.89-1.58,2.2-2.72l143.41,10.96
		c0.03,0.58,0.18,1.17,0.46,1.72c1.08,2.12,3.67,2.96,5.78,1.88C1900.46,858.4,1901.31,855.82,1900.23,853.7z M1859.36,642.61
		c0.42,0.17,0.87,0.27,1.33,0.29l7.53,105.3c-0.37,0.08-0.74,0.2-1.1,0.38c-0.59,0.3-1.08,0.72-1.46,1.22l-49.72-28.77
		L1859.36,642.61z M1736.98,562.04c0.31,0.61,0.75,1.11,1.25,1.49l-20.91,37.07l16.8-45.57l3.1,2.7
		C1736.4,558.97,1736.26,560.62,1736.98,562.04z M1751.64,647.17c-0.22,0.11-0.42,0.24-0.61,0.38l-33.38-37.86
		c0.7-0.8,1.08-1.84,1.06-2.91l27.47-4.07l6.15,44.18C1752.1,646.97,1751.87,647.06,1751.64,647.17z M1755.33,654.93l25.06,37.58
		l-28.7-37.66C1752.79,655.4,1754.12,655.46,1755.33,654.93z M1749.37,651.82l-25.12-32.96l25.97,29.47
		C1749.46,649.3,1749.13,650.57,1749.37,651.82z M1718.56,605.7c-0.08-0.26-0.18-0.53-0.31-0.78c-0.31-0.61-0.74-1.11-1.25-1.49
		l22.2-39.35c0.52,0.21,1.08,0.32,1.65,0.31l5.18,37.23L1718.56,605.7z M1715.38,602.68c-0.79-0.18-1.64-0.14-2.44,0.16
		l-62.65-119.65l0.08-0.39c0.09-0.06,0.17-0.13,0.25-0.21l82.62,71.68L1715.38,602.68z M1711.96,603.35
		c-0.32,0.22-0.61,0.48-0.84,0.77l-76.76-48.36l13.12-72.11c0.56,0.04,1.14-0.03,1.69-0.23L1711.96,603.35z M1627.38,612.66
		c0.44-0.62,0.72-1.35,0.79-2.11l82.02-2.98c0.07,0.42,0.21,0.84,0.41,1.24c0.04,0.09,0.1,0.17,0.14,0.25l-47.37,37.27
		L1627.38,612.66z M1693.12,675.67c-0.3,0.41-0.52,0.88-0.65,1.36l-53.26-7.56c0-0.67-0.14-1.36-0.47-2
		c-0.04-0.09-0.1-0.16-0.14-0.25l24.71-19.44L1693.12,675.67z M1536.14,581.13l71.94-36.61c0.49,0.71,1.16,1.24,1.92,1.55
		l-14.53,55.14l-59.15-17.94C1536.45,582.58,1536.39,581.84,1536.14,581.13z M1611.08,546.36c0.25,0.03,0.51,0.04,0.76,0.03
		l10.75,59.67c-0.22,0.07-0.44,0.16-0.65,0.26c-0.99,0.5-1.7,1.34-2.06,2.3l-23.34-7.08L1611.08,546.36z M1612.93,546.19
		c0.22-0.07,0.44-0.15,0.65-0.26c0.54-0.28,1-0.65,1.36-1.09l18.19,11.46l-9.02,49.57c-0.13-0.01-0.27-0.01-0.4,0L1612.93,546.19z
		 M1634.14,556.94l76.39,48.13c-0.21,0.44-0.33,0.92-0.38,1.4l-82.02,2.98c-0.07-0.42-0.21-0.84-0.41-1.24
		c-0.54-1.07-1.47-1.81-2.53-2.14L1634.14,556.94z M1633.35,555.13l-17.82-11.22c0.53-1.15,0.55-2.53-0.07-3.75
		c-0.31-0.6-0.73-1.09-1.23-1.47l8.9-15.48l22.94-39.89c0.1,0.05,0.21,0.08,0.31,0.12L1633.35,555.13z M1613.27,538.13
		c-1.12-0.46-2.43-0.46-3.59,0.14c-1.79,0.91-2.67,2.9-2.24,4.78l-15.79-12.87l53.3-47.56c0.05,0.05,0.11,0.09,0.17,0.14
		L1613.27,538.13z M1606.79,543.94l-71.15,36.2l55.17-49.22L1606.79,543.94z M1536.01,584.34l59.19,17.95l-17.18,65.18
		c-0.66-0.08-1.34-0.02-1.99,0.21l-41.51-81.57C1535.19,585.66,1535.69,585.04,1536.01,584.34z M1596.26,602.61l23.36,7.09
		c-0.09,0.8,0.05,1.63,0.44,2.41c0.22,0.43,0.5,0.8,0.82,1.12l-41.3,54.77c-0.16-0.09-0.33-0.17-0.5-0.24L1596.26,602.61z
		 M1621.97,614c0.21,0.11,0.44,0.2,0.67,0.27l-9.27,55.77l-31.67,1.01c-0.07-0.43-0.2-0.85-0.41-1.26
		c-0.21-0.42-0.49-0.79-0.82-1.11L1621.97,614z M1614.32,671.11l16.45-0.52c0.08,0.27,0.18,0.54,0.31,0.79
		c0.29,0.58,0.71,1.06,1.19,1.44l-24.22,38.83c-0.14-0.07-0.29-0.13-0.43-0.19L1614.32,671.11z M1630.61,669.48l-16.11,0.51
		l9.23-55.54c0.29,0.01,0.59-0.01,0.88-0.05l8.79,51.01c-0.15,0.06-0.3,0.12-0.44,0.19C1631.45,666.37,1630.59,667.9,1630.61,669.48
		z M1625.68,614.06c0.05-0.03,0.1-0.05,0.16-0.07c0.29-0.15,0.55-0.32,0.78-0.52l35.87,33.55l-24.58,19.34
		c-0.91-0.89-2.17-1.33-3.43-1.2L1625.68,614.06z M1639.04,670.57l53.26,7.55c-0.01,0.68,0.14,1.36,0.46,2
		c0.16,0.32,0.36,0.61,0.59,0.87l-24.28,27.32l-30.98-36.03C1638.55,671.8,1638.87,671.21,1639.04,670.57z M1664.19,647.1
		l47.23-37.16c0.41,0.41,0.91,0.72,1.44,0.93l-15.76,63.05c-0.82-0.1-1.66,0.04-2.45,0.44c-0.28,0.14-0.54,0.32-0.78,0.51
		L1664.19,647.1z M1713.93,611.13c0.81,0.1,1.66-0.04,2.45-0.44c0.07-0.03,0.12-0.07,0.19-0.11l71,93.17
		c-0.4,0.37-0.71,0.79-0.94,1.26l-85.79-26.13c0.15-0.88,0.03-1.81-0.41-2.66c-0.49-0.97-1.31-1.67-2.26-2.05L1713.93,611.13z
		 M1700.52,679.95l85.75,26.12c-0.19,0.92-0.08,1.91,0.38,2.8c0.24,0.48,0.56,0.89,0.93,1.23l-19.07,27l-68.27-56.62
		C1700.34,680.31,1700.43,680.13,1700.52,679.95z M1798.41,758.21c-0.08-0.34-0.19-0.69-0.36-1.02c-0.31-0.62-0.76-1.13-1.28-1.51
		l18.65-33.69l49.7,28.76c-0.2,0.47-0.31,0.97-0.33,1.49L1798.41,758.21z M1861.95,753.61l-121.17,30.01l49.79-22.24
		c1.16,1.89,3.6,2.61,5.61,1.59c1.44-0.73,2.28-2.16,2.35-3.66L1861.95,753.61z M1795.8,755.15c-0.42-0.16-0.86-0.26-1.32-0.29
		l-3.05-43.75c0.33-0.08,0.66-0.19,0.99-0.35c0.59-0.3,1.08-0.72,1.46-1.22l20.58,11.91L1795.8,755.15z M1793.38,754.94
		c-0.38,0.08-0.74,0.2-1.1,0.38c-0.37,0.19-0.69,0.42-0.98,0.69l-21.94-18.2l19.13-27.07c0.57,0.3,1.2,0.47,1.85,0.49
		L1793.38,754.94z M1768.72,738.7l21.88,18.15c-0.65,1.03-0.84,2.32-0.48,3.52l-51.62,23.06c-0.2-0.35-0.43-0.67-0.71-0.94
		L1768.72,738.7z M1739.02,785.2l126.06-31.22c0.05,0.13,0.1,0.26,0.17,0.39c0.02,0.04,0.05,0.08,0.07,0.12l-74.58,54.78
		l-51.9-22.49C1739,786.28,1739.06,785.74,1739.02,785.2z M1858.27,641.98c0.04,0.03,0.09,0.06,0.13,0.09l-43.4,78.41l-20.56-11.9
		c0.47-1.13,0.46-2.44-0.13-3.6c-0.11-0.22-0.24-0.42-0.39-0.62L1858.27,641.98z M1857.5,641.18l-64.35,62.38
		c-0.63-0.5-1.38-0.82-2.17-0.91l-0.68-55.33l66.48-7.67c0.08,0.31,0.19,0.62,0.34,0.91
		C1857.22,640.79,1857.35,640.99,1857.5,641.18z M1791.05,599.62c0.57-0.29,1.05-0.7,1.43-1.17l64.52,38.46
		c-0.22,0.52-0.34,1.08-0.35,1.65l-66.37,7.66l-0.57-46.17C1790.17,599.98,1790.62,599.84,1791.05,599.62z M1789.86,702.67
		c-0.39,0.06-0.78,0.17-1.15,0.33l-32.44-48.64c1.02-0.81,1.59-2.03,1.61-3.3l31.3-3.61L1789.86,702.67z M1787.27,599.67
		c0.42,0.2,0.87,0.33,1.34,0.39l0.57,46.28l-31.42,3.63c-0.08-0.31-0.19-0.62-0.33-0.91c-0.27-0.53-0.63-0.98-1.06-1.34
		L1787.27,599.67z M1786.33,599.08l-30.9,48.05c-0.62-0.3-1.31-0.44-2.01-0.41l-6.15-44.16l37.69-5.59
		c0.08,0.26,0.18,0.52,0.31,0.78C1785.54,598.27,1785.91,598.72,1786.33,599.08z M1742.76,563.93c0.44-0.22,0.82-0.52,1.15-0.85
		l41.43,30.63c-0.36,0.66-0.55,1.41-0.53,2.17l-37.69,5.59l-5.17-37.21C1742.22,564.17,1742.5,564.06,1742.76,563.93z
		 M1741.32,555.83c-0.82-0.1-1.66,0.04-2.45,0.44c-0.34,0.17-0.63,0.38-0.91,0.62l-3.42-2.97l22.97-62.28L1741.32,555.83z
		 M1733.64,553.15l-82.3-71.4c0.35-0.52,0.57-1.11,0.67-1.73l104.3,2.14c0.06,0.51,0.2,1.01,0.44,1.48
		c0.42,0.83,1.07,1.46,1.84,1.86L1733.64,553.15z M1651.68,477.61l55.06-33.98l50.06,36.02c-0.23,0.44-0.39,0.91-0.46,1.4
		l-104.3-2.14C1651.98,478.47,1651.87,478.03,1651.68,477.61z M1740.89,426.65l17.77,51.19c-0.01,0.01-0.02,0.01-0.03,0.01
		c-0.46,0.23-0.85,0.54-1.18,0.89L1707.76,443l28.92-17.85C1737.69,426.4,1739.33,426.98,1740.89,426.65z M1668.93,413.85l66.79,8.6
		c0,0.59,0.12,1.19,0.38,1.76l-29.32,18.09l-38.22-27.5C1668.72,414.5,1668.84,414.18,1668.93,413.85z M1666.73,416.59
		c0.46-0.23,0.85-0.54,1.19-0.89l37.85,27.24l-54,33.32l12.66-59.21C1665.2,417.1,1665.99,416.96,1666.73,416.59z M1661.76,415.81
		c0.45,0.45,1,0.79,1.58,0.99l-12.7,59.38c-1.28-1.16-3.19-1.48-4.83-0.65c-1.6,0.81-2.47,2.5-2.34,4.19l-87.88,18.9L1661.76,415.81
		z M1643.72,480.81c0.06,0.17,0.13,0.35,0.21,0.51c0.09,0.16,0.18,0.32,0.29,0.47l-53.44,47.68l-36.18-29.49L1643.72,480.81z
		 M1553.68,500.66l36.27,29.56l-55.04,49.11c-0.37-0.31-0.78-0.56-1.22-0.74L1553.68,500.66z M1530.65,586.62
		c0.91,0.33,1.93,0.34,2.89,0l41.51,81.57c-0.34,0.23-0.64,0.5-0.89,0.81l-64.79-40.69L1530.65,586.62z M1573.2,672.26l-52.85,13.53
		l-15.52,3.97l-27.92,7.15c0-0.01-0.01-0.02-0.01-0.03c-0.39-0.76-0.97-1.35-1.65-1.75l33.61-65.83l64.71,40.64
		C1573.23,670.66,1573.1,671.46,1573.2,672.26z M1465.94,598.59l62.13-14.51c0.06,0.15,0.12,0.3,0.2,0.44
		c0.34,0.67,0.83,1.2,1.4,1.6l-21.24,41.6l-42.85-26.91C1465.89,600.12,1466.02,599.36,1465.94,598.59z M1463.62,602.85
		c0.54-0.28,1-0.66,1.36-1.1l42.93,26.96l-33.69,65.98c-0.39-0.11-0.8-0.17-1.22-0.16l-1.88-16.7l-8.42-74.65
		C1463.01,603.11,1463.32,603,1463.62,602.85z M1461.6,603.32l8.34,73.88l1.97,17.49c-0.27,0.08-0.53,0.18-0.8,0.31
		c-0.74,0.37-1.32,0.93-1.72,1.59l-35.31-13.31l26.76-80.05C1461.09,603.28,1461.34,603.31,1461.6,603.32z M1312.59,662.83
		c0.21,0,0.42-0.01,0.62-0.03l10.29,41.69l7.1,28.78c-0.13,0.05-0.26,0.11-0.39,0.18c-1.19,0.61-1.98,1.69-2.25,2.9l-26.96-2.44
		L1312.59,662.83z M1299.9,733.81l-69.62-6.28c-0.02-0.61-0.17-1.21-0.46-1.78c-0.05-0.1-0.1-0.19-0.16-0.27l80.09-63.85
		c0.5,0.48,1.1,0.83,1.75,1.03L1299.9,733.81z M1324.44,703.67l-10.15-41.14c0.13-0.05,0.26-0.11,0.39-0.17
		c0.55-0.28,1.02-0.67,1.39-1.13l56.44,34.71l-37.73,37.91c-0.88-0.67-1.99-0.98-3.09-0.86L1324.44,703.67z M1394.28,670.46
		c0,0.65,0.15,1.3,0.46,1.91c0.14,0.27,0.3,0.52,0.49,0.75l-21.92,22.02l-56.66-34.85c0.09-0.2,0.16-0.41,0.22-0.62L1394.28,670.46z
		 M1316.9,657.47l40.34-16l37.55,26.92c-0.17,0.31-0.29,0.63-0.38,0.97l-77.38-10.79C1317.03,658.21,1316.99,657.84,1316.9,657.47z
		 M1396.03,673.88c1.02,0.74,2.34,1.02,3.59,0.7l18.23,46.41c-0.25,0.36-0.44,0.76-0.57,1.18l-43-26.44L1396.03,673.88z
		 M1373.48,696.54l43.61,26.81c-0.01,0.28,0.01,0.55,0.06,0.82l-80.85,11.92c-0.08-0.26-0.18-0.52-0.31-0.78
		c-0.12-0.25-0.27-0.47-0.43-0.68L1373.48,696.54z M1336.46,737.2l53.78-7.93l27.25-4.02c0.02,0.05,0.04,0.1,0.06,0.15
		c0.21,0.41,0.47,0.76,0.78,1.07l-39.63,50.92l-42.97-37.72C1336.22,738.94,1336.47,738.08,1336.46,737.2z M1400.65,674.18
		c0.73-0.41,1.31-0.99,1.68-1.68l30.36,11.44l-11.78,35.24c-0.5,0.06-1,0.2-1.48,0.44c-0.27,0.13-0.52,0.3-0.75,0.48L1400.65,674.18
		z M1433.73,684.33l35.21,13.28c-0.21,0.72-0.24,1.48-0.06,2.23l-43.85,21.34c-0.68-1.08-1.77-1.77-2.96-1.97L1433.73,684.33z
		 M1425.49,722.19l43.79-21.31c0.54,0.99,1.41,1.68,2.4,2.02l-12.01,60.34l-34.97-37.07
		C1425.6,725.07,1425.91,723.58,1425.49,722.19z M1459.26,602.58c0.17,0.11,0.35,0.21,0.53,0.3l-26.75,80.01l-30.3-11.43
		c0.24-0.97,0.15-2.03-0.33-3c-0.15-0.3-0.34-0.57-0.54-0.81L1459.26,602.58z M1458.13,601.45c0.1,0.14,0.2,0.27,0.31,0.4
		l-57.39,65.06c-1.26-0.89-2.96-1.06-4.42-0.32c-0.46,0.23-0.86,0.54-1.19,0.9l-36.97-26.5L1458.13,601.45z M1284.75,586.73
		l170.7,14.59l-98.06,38.9l-73.05-52.37C1284.53,587.49,1284.67,587.12,1284.75,586.73z M1283.69,588.74l72.48,51.96l-39.68,15.74
		c-0.99-1.78-3.07-2.6-4.97-2.04l-28.73-64.93C1283.13,589.27,1283.43,589.02,1283.69,588.74z M1279.54,589.98
		c0.72,0.18,1.49,0.17,2.23-0.05l28.73,64.93c-1.9,1.15-2.63,3.6-1.6,5.62c0.05,0.09,0.1,0.18,0.15,0.27l-80.08,63.85
		c-0.28-0.27-0.6-0.51-0.94-0.69L1279.54,589.98z M1222.16,729.64c0.36,0.71,0.89,1.27,1.52,1.67l-10.83,23.09L1165,728.59
		c0.12-0.3,0.2-0.62,0.25-0.94l56.48,0.56C1221.78,728.69,1221.92,729.18,1222.16,729.64z M1162.16,709.83
		c0.87-0.44,1.53-1.15,1.92-1.97l57.69,19.02c-0.01,0.07-0.03,0.14-0.04,0.21l-56.48-0.56c-0.06-0.49-0.2-0.97-0.43-1.44
		c-0.7-1.36-2.02-2.19-3.44-2.33l-0.46-12.54C1161.34,710.17,1161.76,710.04,1162.16,709.83z M1157.61,709.42
		c0.64,0.49,1.41,0.79,2.21,0.86l0.46,12.54c-0.42,0.07-0.83,0.21-1.24,0.41c-1.03,0.52-1.75,1.4-2.11,2.41l-12.77-2.67
		L1157.61,709.42z M1157.16,729c0.04,0.08,0.09,0.15,0.13,0.22l-83.65,64.84l69.59-70.16l13.48,2.82
		C1156.65,727.49,1156.79,728.27,1157.16,729z M1101.21,774.1l56.76-43.99c0.57,0.57,1.28,0.95,2.05,1.14l-8.13,80.32l-80.33-11.78
		c0.01-0.68-0.14-1.37-0.47-2.02c-0.04-0.08-0.09-0.15-0.13-0.22L1101.21,774.1z M1101.15,713.67l54.9-6.61
		c0.08,0.31,0.19,0.61,0.33,0.89c0.12,0.25,0.27,0.48,0.43,0.69l-13.94,14.06l-41.74-8.74
		C1101.14,713.86,1101.14,713.77,1101.15,713.67z M1095.99,717.84c0.92,0.19,1.91,0.08,2.81-0.38c1.03-0.52,1.75-1.41,2.11-2.42
		l41.04,8.59l-72.08,72.66c-0.22-0.17-0.45-0.31-0.7-0.43L1095.99,717.84z M1068.12,795.5c-0.92-0.19-1.91-0.09-2.81,0.37
		c-0.93,0.48-1.62,1.25-2,2.14l-11.68-3.3l42.74-75.58L1068.12,795.5z M1022.65,848.81c-0.07-0.13-0.14-0.27-0.22-0.39l42.33-45.22
		c0.5,0.36,1.06,0.6,1.65,0.72l-4.1,57.94l-39.29-10.19C1023.22,850.73,1023.12,849.73,1022.65,848.81z M1063.43,801.66
		c0.15,0.28,0.32,0.54,0.52,0.78l-42.14,45.01l29.26-51.74l11.95,3.38C1062.89,799.93,1063.01,800.83,1063.43,801.66z
		 M1094.02,716.87c0.08,0.07,0.16,0.13,0.25,0.2l-43.74,77.34l-30.36-8.57c0.13-0.85,0-1.75-0.41-2.58
		c-0.09-0.16-0.18-0.31-0.28-0.46L1094.02,716.87z M1016.68,789.44c0.41-0.07,0.81-0.21,1.2-0.4c0.93-0.48,1.62-1.24,2-2.14
		l30.09,8.5l-29.16,51.55c-0.45-0.23-0.93-0.39-1.44-0.46L1016.68,789.44z M1014.99,852.7
		C1014.99,852.7,1014.99,852.7,1014.99,852.7c0.25,0.49,0.58,0.91,0.97,1.26l-22.57,32.99l-12.32-3.63l0.91-9.55
		c1.9-0.06,3.59-1.39,4.02-3.32c0.42-1.87-0.46-3.71-2.03-4.63l31.22-12.6L1014.99,852.7z M979.99,883.01l-20.4-6.02
		c0.03-0.2,0.05-0.41,0.05-0.61l18.26-5.19c0.52,1.22,1.59,2.17,2.98,2.48L979.99,883.01z M977.66,868.55
		c-0.12,0.53-0.13,1.07-0.06,1.58l-14.57,4.14l14.7-5.93C977.7,868.41,977.68,868.48,977.66,868.55z M958.58,879.11
		c0.29-0.32,0.52-0.68,0.7-1.07l20.61,6.08l-2.02,21.22c-0.41,0.07-0.83,0.2-1.23,0.4l-12.17-17.82L958.58,879.11z M978.98,905.3
		l1.98-20.86l11.77,3.47l-12.19,17.83C980.06,905.49,979.53,905.35,978.98,905.3z M921.06,822.64l56.8,44.46l-18.56,7.49
		c-0.04-0.08-0.07-0.17-0.11-0.25c-0.98-1.93-3.22-2.78-5.21-2.1l-33.1-49.43C920.94,822.75,921,822.69,921.06,822.64z
		 M841.19,785.11l17.13,7.73l55.78,25.15c-0.09,0.21-0.16,0.42-0.21,0.65c-0.32,1.4,0.1,2.79,0.98,3.79l-27.39,28.55l-46.77-65.1
		C840.89,785.65,841.06,785.39,841.19,785.11z M839.91,786.66l46.8,65.13l-40.18,41.89c-0.46-0.34-1-0.59-1.59-0.73
		c-0.21-0.05-0.42-0.07-0.62-0.09l-5.53-105.6C839.18,787.11,839.56,786.91,839.91,786.66z M801.68,895.1l-71.47-2.47
		c-0.07-0.8-0.37-1.55-0.84-2.17l57.38-56.31l53.99,60.18c-0.44,0.52-0.77,1.14-0.93,1.85c-0.02,0.08-0.03,0.16-0.05,0.25
		L801.68,895.1z M835.51,897.38l-97.96,9.37l-8.52-10.74c0.53-0.54,0.93-1.23,1.11-2.03c0.02-0.08,0.03-0.17,0.04-0.25
		L835.51,897.38z M843.03,901.3c1.02,0.23,2.03,0.08,2.89-0.37l6.84,9.97l-80.86,30.63l68.74-41.73
		C841.23,900.53,842.05,901.07,843.03,901.3z M846.83,900.31c0.64-0.57,1.12-1.34,1.32-2.24c0.07-0.31,0.1-0.62,0.1-0.93l60.92-7.61
		l-55.35,20.97L846.83,900.31z M835,786.79c0.42,0.28,0.89,0.49,1.4,0.6c0.43,0.1,0.86,0.13,1.28,0.1l5.52,105.42
		c-0.6,0.11-1.16,0.34-1.65,0.68l-54.03-60.22L835,786.79z M769.56,810.57c0.15-0.67,0.13-1.33-0.02-1.96l64.06-23.35
		c0.16,0.29,0.35,0.56,0.57,0.81l-47.37,46.48l-18.12-20.2C769.1,811.85,769.41,811.25,769.56,810.57z M767.87,813.11l18.14,20.22
		l-57.41,56.34c-0.11-0.08-0.22-0.16-0.33-0.23l12.39-26.22l23.4-49.53c0.13,0.04,0.26,0.08,0.39,0.11
		C765.68,814.08,766.91,813.79,767.87,813.11z M680.68,849.84l22.99-10.77l20.19,50.24c-0.28,0.16-0.55,0.34-0.79,0.56l-42.88-36.4
		c0.26-0.41,0.47-0.87,0.58-1.37C680.96,851.31,680.91,850.55,680.68,849.84z M704.67,838.6l57.07-26.74
		c0.33,0.54,0.78,1.01,1.32,1.35l-23.54,49.83l-12.25,25.92c-0.12-0.04-0.24-0.08-0.36-0.11c-0.69-0.16-1.38-0.13-2.02,0.03
		L704.67,838.6z M675.32,758.26l93.39,8.93l-3.49,38.16c-1.28,0.05-2.46,0.67-3.23,1.66l-86.85-48.2
		C675.22,758.64,675.28,758.46,675.32,758.26z M674.64,759.79l86.8,48.18c-0.09,0.23-0.17,0.46-0.23,0.71
		c-0.17,0.75-0.13,1.49,0.08,2.18l-57.03,26.72l-30.81-76.65C673.92,760.62,674.32,760.24,674.64,759.79z M634.48,709.6
		c0.14,0.04,0.27,0.09,0.41,0.12c1.01,0.23,2.02,0.08,2.88-0.36l30.53,44.76c-0.64,0.57-1.13,1.34-1.33,2.25
		c-0.13,0.56-0.14,1.12-0.05,1.65l-61.55,16.53c-0.32-0.79-0.88-1.46-1.6-1.94L634.48,709.6z M521.11,732.74l-31.14,19.27
		l-18.5-32.59c0.62-0.41,1.13-0.99,1.47-1.68l47.17,11.6C519.92,730.61,520.32,731.83,521.11,732.74z M521.97,733.5
		c0.42,0.28,0.89,0.49,1.41,0.61c0.29,0.07,0.59,0.1,0.88,0.11l-15.45,46.64c-0.82-0.16-1.63-0.07-2.36,0.21l-15.95-28.1
		L521.97,733.5z M528.6,729.57l62.77-13.73l8.86,56.24c-0.84,0.24-1.58,0.74-2.13,1.43l-46.22-28.19l-23.42-14.28
		c0.01-0.05,0.03-0.1,0.04-0.15C528.6,730.44,528.63,730,528.6,729.57z M597.52,774.44c-0.11,0.25-0.2,0.51-0.26,0.79
		c-0.06,0.27-0.09,0.53-0.1,0.8l-53.29,5.02l-16.3-48.31c0.18-0.21,0.34-0.43,0.48-0.67L597.52,774.44z M542.73,781.15l-30.57,2.88
		c-0.31-1.23-1.14-2.27-2.3-2.83l15.61-47.14c0.42-0.11,0.82-0.3,1.19-0.54L542.73,781.15z M510.52,788.52l52.37,57.54
		c-0.24,0.28-0.44,0.59-0.6,0.93l-41.08-13.45l-11.6-44.52C509.94,788.89,510.24,788.72,510.52,788.52z M511.33,787.76
		c0.41-0.5,0.71-1.09,0.86-1.76c0.07-0.3,0.1-0.59,0.1-0.88l30.8-2.9l21.17,62.76c-0.2,0.1-0.39,0.21-0.57,0.34L511.33,787.76z
		 M544.22,782.12l53.04-4.99c0.25,1.07,0.9,2.02,1.82,2.63l-13.14,27.07l-18.43,37.95c-0.13-0.04-0.27-0.08-0.41-0.11
		c-0.61-0.14-1.21-0.13-1.78-0.02L544.22,782.12z M587.18,806.79l12.9-26.55c0.13,0.04,0.27,0.09,0.41,0.11
		c1.3,0.3,2.59-0.03,3.56-0.79l19.09,19.04l-54.14,47.03c-0.15-0.14-0.32-0.26-0.49-0.38L587.18,806.79z M604.82,778.78
		c0.36-0.48,0.64-1.03,0.78-1.65c0.12-0.51,0.13-1.03,0.06-1.52l61.58-16.54c0.13,0.28,0.28,0.55,0.47,0.8l-43.75,38.01
		L604.82,778.78z M633.49,709.11l-30.7,63.01c-0.14-0.04-0.27-0.09-0.42-0.11c-0.36-0.08-0.71-0.11-1.06-0.1l-8.87-56.31l39.38-8.62
		C632.13,707.85,632.72,708.6,633.49,709.11z M580.12,631.43l52.75,71.03c-0.58,0.56-1.01,1.29-1.2,2.13
		c-0.1,0.45-0.13,0.89-0.09,1.32l-39.31,8.6l-13.03-82.7C579.55,631.71,579.85,631.59,580.12,631.43z M577.09,631.88
		c0.36,0.08,0.71,0.11,1.06,0.1l13.04,82.77l-62.84,13.75c-0.3-0.82-0.84-1.54-1.56-2.06l49.76-94.72
		C576.73,631.77,576.91,631.83,577.09,631.88z M575.09,630.8c0.15,0.15,0.31,0.28,0.49,0.41l-49.76,94.73
		c-0.17-0.07-0.35-0.12-0.54-0.17c-0.22-0.05-0.44-0.08-0.66-0.09l-3.21-51.44L575.09,630.8z M524.23,662.36
		c0.21-0.91,0.1-1.81-0.23-2.6l48.13-27.98l-50.8,41.11l-0.46-7.27C522.48,665.3,523.84,664.07,524.23,662.36z M523.52,725.73
		c-1.38,0.27-2.57,1.22-3.13,2.55l-47.1-11.58c0.22-1.1,0-2.19-0.55-3.08l47.62-38.54L523.52,725.73z M517.56,664.89
		c0.45,0.32,0.98,0.57,1.55,0.7c0.22,0.05,0.44,0.08,0.66,0.09l0.5,8.06l-45.34,36.69L517.56,664.89z M381.87,619.87l133.98,40.84
		c-0.21,1.26,0.15,2.5,0.92,3.43l-45.17,48.26c-0.45-0.32-0.98-0.57-1.55-0.7c-1.35-0.31-2.69,0.07-3.68,0.89l-85.34-91.31
		C381.38,620.87,381.67,620.4,381.87,619.87z M465.6,713.38c-0.1,0.15-0.2,0.31-0.29,0.48l-65.57-31.14l-23.76-11.29
		c0.04-0.12,0.08-0.25,0.1-0.37c0.52-2.29-0.9-4.56-3.17-5.11l4.67-43.29c0.93,0.06,1.84-0.19,2.59-0.68L465.6,713.38z
		 M465.07,717.31l-67.66,28.98l-23.65-72.32c0.71-0.34,1.32-0.87,1.75-1.54l49.08,23.31l14.41,6.84l25.93,12.32
		c0,0.01,0,0.02-0.01,0.03C464.73,715.74,464.8,716.57,465.07,717.31z M270.88,769.42l-71.09,2.46c-0.01-0.07-0.03-0.14-0.04-0.21
		l59.65-22.11c0.56,1.07,1.57,1.89,2.84,2.18c1.95,0.44,3.89-0.52,4.76-2.23L270.88,769.42z M268.06,749.24l77.52,17.61L272,769.38
		L268.06,749.24z M329.79,637.97l12.66,9.87L300,684.48c-0.22-0.19-0.45-0.37-0.71-0.51l25.76-44.65c0.15,0.05,0.3,0.1,0.46,0.14
		C327.16,639.82,328.8,639.19,329.79,637.97z M326.18,583.57l87.72-13.3c0.09,0.3,0.21,0.59,0.36,0.86l-84.66,61.22
		c-0.56-0.6-1.31-1.05-2.17-1.24c-0.16-0.03-0.31-0.06-0.47-0.08L326.18,583.57z M330.65,634.36l43.27-14.29
		c0.06,0.14,0.13,0.28,0.21,0.42L343.3,647.1l-12.93-10.07c0.11-0.25,0.21-0.52,0.27-0.8C330.79,635.59,330.78,634.96,330.65,634.36
		z M223.97,569.5c-1.29-0.03-2.51,0.54-3.33,1.5l-26.26-17.17l34.65-42.7c0.33,0.21,0.7,0.36,1.1,0.47L223.97,569.5z M229.81,524.95
		l-2.02,47.11c-0.5-1.13-1.47-2.02-2.73-2.38L229.81,524.95z M222.94,577.96c0.24,0.05,0.47,0.08,0.71,0.1l1.43,50.24
		c-1.05,0.17-2,0.73-2.67,1.55l-23.62-14.37l23.44-37.74C222.46,577.82,222.69,577.9,222.94,577.96z M224.75,577.97
		c1.22-0.25,2.28-1.02,2.89-2.12l-1.77,41.23L224.75,577.97z M231.48,511.76c0.53-0.02,1.05-0.15,1.52-0.36l49.03,74.64
		c-0.67,0.58-1.17,1.36-1.39,2.29c-0.24,1.06-0.06,2.12,0.43,3.01l-52.22,38.23c-0.56-0.59-1.3-1.03-2.15-1.22
		c-0.07-0.02-0.14-0.03-0.22-0.04L231.48,511.76z M319.74,483.21l-51.57,13.81l-5.19-27.83c1.15-0.37,2.12-1.23,2.61-2.39
		l54.2,15.23C319.72,482.43,319.7,482.82,319.74,483.21z M267.1,497.3l-31.88,8.54c-0.25-0.59-0.62-1.13-1.1-1.55l25.51-35.4
		c0.33,0.18,0.7,0.32,1.08,0.41c0.4,0.09,0.8,0.12,1.19,0.1L267.1,497.3z M235.45,508.44c0.12-0.52,0.13-1.03,0.06-1.53l31.8-8.52
		l16.19,86.82c-0.19,0.06-0.37,0.13-0.55,0.22l-49-74.61C234.68,510.24,235.23,509.41,235.45,508.44z M289.83,633.72l-59.83-1.64
		c-0.06-0.58-0.24-1.13-0.51-1.62l52.22-38.23c0.56,0.59,1.3,1.03,2.15,1.22c0.31,0.07,0.62,0.1,0.93,0.1L289.83,633.72z
		 M285.89,593.42c0.49-0.13,0.95-0.34,1.36-0.63l35.96,39.71c-0.44,0.51-0.76,1.13-0.92,1.83c-0.02,0.09-0.03,0.19-0.05,0.28
		l-31.3-0.86L285.89,593.42z M228.77,635.55l64.69,49.96c-0.21,0.37-0.38,0.77-0.48,1.21c-0.26,1.16-0.03,2.32,0.57,3.25
		l-38.13,31.92l-27.82-85.5C228.02,636.17,228.43,635.89,228.77,635.55z M294.25,690.81c0.1,0.09,0.2,0.18,0.31,0.26l-29.76,52.54
		c-0.21-0.09-0.43-0.16-0.66-0.21c-0.59-0.13-1.18-0.14-1.74-0.03l-6.62-20.36L294.25,690.81z M294.13,684.64l-64.69-49.96
		c0.21-0.37,0.38-0.77,0.48-1.21c0.02-0.09,0.03-0.19,0.05-0.28l60,1.64l6.1,48.7C295.34,683.72,294.67,684.1,294.13,684.64z
		 M291.09,634.86l31.13,0.85c0.13,1.26,0.81,2.4,1.86,3.11l-25.81,44.72c-0.05-0.01-0.11-0.03-0.17-0.05
		c-0.31-0.07-0.62-0.1-0.93-0.1L291.09,634.86z M324.03,631.76l-35.96-39.71c0.44-0.51,0.76-1.13,0.92-1.83
		c0.08-0.35,0.11-0.7,0.1-1.04l35.99-5.46l0.77,47.31C325.19,631.14,324.57,631.39,324.03,631.76z M288.93,588.1
		c-0.32-1.11-1.08-2.06-2.13-2.61l36.19-98.51c0.02,0,0.05,0.01,0.07,0.02c0.16,0.04,0.31,0.06,0.46,0.08l1.55,95.54L288.93,588.1z
		 M285.76,585.11c-0.4-0.09-0.79-0.12-1.18-0.1l-16.21-86.91l51.61-13.82c0.35,0.97,1.05,1.79,1.98,2.3L285.76,585.11z
		 M320.51,480.34l-116.38-56.39c0.05-0.13,0.08-0.27,0.11-0.41c0.01-0.05,0.02-0.09,0.02-0.14l91.98,5.57l25.41,50.27
		C321.22,479.53,320.83,479.9,320.51,480.34z M318.17,480.43l-52.28-14.69c0.32-2.19-1.09-4.29-3.28-4.79
		c-1.56-0.36-3.12,0.2-4.13,1.31l-52.18-36.03L318.17,480.43z M258.73,468.24l-25.53,35.43c-0.31-0.16-0.63-0.28-0.98-0.36
		c-0.64-0.14-1.29-0.13-1.89,0.01l-8.17-22.23l35.75-13.92C258.13,467.57,258.4,467.93,258.73,468.24z M229.29,503.7
		c-1.07,0.56-1.9,1.57-2.19,2.84c-0.05,0.24-0.08,0.48-0.1,0.72l-89,6.76c-0.01-0.05-0.02-0.1-0.04-0.15l83.16-32.38L229.29,503.7z
		 M137.99,515.84c0.05-0.24,0.08-0.48,0.1-0.72l89-6.76c0.16,0.78,0.54,1.51,1.09,2.08l-34.72,42.79l-55.78-36.47
		C137.81,516.46,137.92,516.16,137.99,515.84z M193.68,554.69l26.35,17.24c-0.14,0.28-0.25,0.59-0.32,0.91
		c-0.13,0.58-0.14,1.15-0.04,1.7l-54.26,17.09c-0.2-0.42-0.46-0.81-0.77-1.15L193.68,554.69z M165.71,594.38
		c0.13-0.58,0.14-1.15,0.04-1.7l54.26-17.1c0.29,0.62,0.72,1.17,1.28,1.59l-23.43,37.72l-32.41-19.73
		C165.55,594.91,165.64,594.65,165.71,594.38z M198.22,616.4l23.62,14.38c-0.11,0.25-0.2,0.51-0.26,0.79
		c-0.15,0.66-0.13,1.32,0.01,1.94l-42.06,15.98c-0.26-0.49-0.62-0.93-1.06-1.29L198.22,616.4z M179.94,652.46
		c0.15-0.66,0.13-1.32-0.01-1.94l39.62-15.06l-41.89,24.18l-0.66-4.04C178.42,655.18,179.58,654.02,179.94,652.46z M222.35,635.12
		c0.49,0.65,1.17,1.15,1.97,1.43l-28.25,131.5l-0.32,0.25c-0.11,0-0.21,0-0.32,0l-17.59-107.49L222.35,635.12z M225.4,636.78
		c0.39,0.03,0.77,0.01,1.14-0.05l27.96,85.92l-55.98,46.84c-0.41-0.39-0.89-0.7-1.44-0.91L225.4,636.78z M254.86,723.77l6.49,19.94
		c-1.14,0.54-2.04,1.58-2.34,2.91c-0.15,0.65-0.13,1.3,0.01,1.91l-16.68,6.18l-42.96,15.92c-0.05-0.1-0.1-0.2-0.16-0.29
		L254.86,723.77z M265.76,744.15l29.78-52.53c0.21,0.09,0.43,0.16,0.67,0.21c1.08,0.24,2.15,0.06,3.04-0.44l13.36,20.29
		l-46.28,32.97C266.15,744.47,265.96,744.31,265.76,744.15z M300.13,690.74c0.58-0.56,1-1.28,1.19-2.12
		c0.1-0.47,0.13-0.93,0.08-1.38l66.5-15.62c0.07,0.17,0.14,0.34,0.23,0.51l-54.64,38.93L300.13,690.74z M367.74,669.15
		c-0.1,0.46-0.13,0.92-0.08,1.37l-66.59,15.43c-0.1-0.22-0.21-0.43-0.35-0.64l42.61-36.78l24.89,19.4
		C368.01,668.3,367.84,668.71,367.74,669.15z M344.19,647.79l30.6-26.42c0.46,0.48,1.04,0.85,1.71,1.08l-4.68,43.37
		c-1.11,0.03-2.15,0.48-2.91,1.24L344.19,647.79z M414.9,572.03l-34.8,42.73c-0.39-0.24-0.83-0.43-1.3-0.54
		c-2.31-0.53-4.6,0.92-5.12,3.22c-0.12,0.53-0.13,1.06-0.06,1.57l-43.34,14.31c-0.02-0.03-0.03-0.06-0.05-0.09L414.9,572.03
		C414.9,572.02,414.9,572.02,414.9,572.03z M326.85,486.01l87.67,80.6c-0.31,0.44-0.55,0.95-0.68,1.52c-0.08,0.35-0.11,0.7-0.1,1.04
		l-87.57,13.28l-1.55-95.4C325.45,486.93,326.23,486.57,326.85,486.01z M351.16,435.47l-25.58,43.38c-0.21-0.08-0.41-0.15-0.64-0.2
		c-0.79-0.18-1.58-0.12-2.3,0.12l-25.13-49.72l51.81,3.14C349.4,433.51,350.09,434.72,351.16,435.47z M247.58,329.52l102.75,99.69
		c-0.42,0.51-0.74,1.11-0.89,1.8c-0.01,0.03-0.01,0.05-0.01,0.08l-52.47-3.18l-49.63-98.21
		C247.41,329.65,247.5,329.58,247.58,329.52z M243.63,330.25c0.11,0.03,0.22,0.07,0.34,0.1c0.82,0.19,1.63,0.12,2.37-0.14
		l49.34,97.63l-91.34-5.53c-0.09-1.36-0.84-2.59-1.98-3.32L243.63,330.25z M203.25,425.46l54.61,37.71
		c-0.16,0.31-0.29,0.65-0.37,1.01c-0.15,0.67-0.13,1.35,0.02,1.97l-35.73,13.91l-19.73-53.67
		C202.5,426.15,202.91,425.84,203.25,425.46z M198.04,426.36c0.33,0.18,0.69,0.32,1.08,0.41c0.65,0.15,1.29,0.13,1.89,0l19.73,53.69
		l-83.18,32.38c-0.22-0.4-0.5-0.76-0.83-1.07L198.04,426.36z M160.64,589.25l-24.89-70.54c0.5-0.25,0.95-0.61,1.32-1.04l55.68,36.41
		l-28.97,35.71c-0.39-0.24-0.82-0.43-1.3-0.53C161.86,589.11,161.23,589.12,160.64,589.25z M163.08,597.42
		c0.7-0.27,1.32-0.72,1.79-1.32l32.4,19.72l-19.74,31.79c-0.26-0.12-0.54-0.21-0.82-0.28c-0.48-0.11-0.96-0.13-1.42-0.08
		L163.08,597.42z M172.66,654.46c0.56,0.59,1.3,1.03,2.16,1.23c0.36,0.08,0.73,0.11,1.09,0.1l0.73,4.45l-57.25,33.05L172.66,654.46z
		 M114.63,697.3l62.19-35.9l17.52,107.08c-0.6,0.18-1.15,0.49-1.61,0.9l-78.48-68.07c0.28-0.42,0.49-0.9,0.61-1.42
		C115.07,698.99,114.97,698.09,114.63,697.3z M113.53,702.14l78.48,68.07c-0.24,0.37-0.43,0.78-0.56,1.23l-63.79-9.07l-15.38-59.46
		C112.74,702.73,113.16,702.47,113.53,702.14z M90.7,753.62l19.01-50.5c0.01,0,0.02,0,0.03,0c0.5,0.11,0.99,0.13,1.48,0.07
		l15.26,59.02l-33.51-4.76C92.99,755.84,92.11,754.36,90.7,753.62z M137.63,809.25l-45.65-49.12c0.38-0.46,0.66-0.99,0.83-1.59
		l33.97,4.83l11.74,45.4C138.21,808.89,137.91,809.05,137.63,809.25z M141.06,808.55c-0.5-0.11-1-0.13-1.48-0.07l-11.63-44.96
		l62.56,8.89l-47.41,37.26C142.56,809.14,141.87,808.73,141.06,808.55z M144.37,812.31c-0.06-0.63-0.26-1.24-0.58-1.77l47.55-37.37
		c0.24,1.71,1.5,3.17,3.29,3.57c1.75,0.4,3.48-0.34,4.45-1.72l79.31,41.51L144.37,812.31z M199.58,774.05
		c0.06-0.17,0.12-0.35,0.16-0.53c0.04-0.18,0.07-0.36,0.08-0.54l71.27-2.46l8.91,45.62L199.58,774.05z M281.15,816.21l-8.93-45.73
		l73.41-2.53c0.08,0.47,0.24,0.93,0.46,1.34L281.15,816.21z M345.84,765.77l-78.39-17.81c0.08-0.85-0.1-1.69-0.48-2.41l46.25-32.96
		l33.85,51.41C346.52,764.48,346.09,765.07,345.84,765.77z M347.98,763.4l-33.87-51.44l54.67-38.95c0.45,0.48,1.01,0.87,1.66,1.1
		l-20.18,88.88C349.45,762.92,348.67,763.07,347.98,763.4z M351.33,763.24l20.19-88.88c0.41,0.04,0.81,0.02,1.2-0.06l23.68,72.42
		l-42.86,18.36C353.04,764.25,352.27,763.59,351.33,763.24z M410.69,797.13l-56.8-28.47c0.05-0.15,0.1-0.31,0.13-0.46
		c0.16-0.72,0.14-1.45-0.05-2.12l42.76-18.31l15.66,47.89C411.71,795.99,411.12,796.49,410.69,797.13z M415.18,795.35
		c-0.59-0.14-1.18-0.14-1.74-0.03l-15.69-47.98l67.82-29.05c0.23,0.33,0.51,0.64,0.83,0.9l-9.19,13.98l-41.1,62.51
		C415.82,795.54,415.51,795.42,415.18,795.35z M417.02,796.28l40.68-61.87l9.63-14.64c0.26,0.11,0.52,0.21,0.81,0.27
		c0.8,0.18,1.6,0.12,2.33-0.13l18.55,32.68l-71.48,44.23C417.39,796.63,417.22,796.44,417.02,796.28z M418.13,797.76l71.44-44.2
		l15.92,28.05c-0.81,0.59-1.41,1.46-1.65,2.51c-0.07,0.32-0.1,0.65-0.1,0.97l-85.4,13.25C418.29,798.13,418.21,797.94,418.13,797.76
		z M418.51,799.42l85.38-13.25c0.4,1.48,1.58,2.7,3.18,3.06c0.5,0.12,1,0.13,1.48,0.07l11.42,43.84l-101.48-33.22
		C418.51,799.75,418.51,799.58,418.51,799.42z M541.83,921.62l-121.37-119.9l99.84,32.68l22.56,86.62
		C542.49,921.18,542.15,921.38,541.83,921.62z M543.93,920.75l-22.38-85.94l40.4,13.23c-0.38,1.99,0.7,3.94,2.51,4.72l-19.36,68
		C544.7,920.71,544.31,920.71,543.93,920.75z M547.9,922.45c-0.44-0.6-1.03-1.08-1.74-1.38l19.36-68c2.2,0.33,4.31-1.08,4.8-3.28
		c0.02-0.1,0.04-0.21,0.05-0.31l101.98,2.13c0.04,0.39,0.14,0.77,0.28,1.13L547.9,922.45z M672.43,850.19
		c-0.02,0.1-0.04,0.21-0.05,0.31l-101.98-2.13c-0.07-0.69-0.31-1.34-0.69-1.9l54.21-47.09l49.3,49.15
		C672.85,849.01,672.58,849.57,672.43,850.19z M673.99,847.76l-49.24-49.1l43.74-38c0.49,0.39,1.06,0.68,1.71,0.83
		c0.31,0.07,0.61,0.1,0.91,0.1l4.71,85.34C675.15,847.06,674.52,847.34,673.99,847.76z M677.55,846.97
		c-0.21-0.05-0.42-0.08-0.63-0.09l-4.71-85.42c0.08-0.02,0.16-0.04,0.24-0.07l30.81,76.65l-23.05,10.8
		C679.63,847.92,678.7,847.23,677.55,846.97z M715.3,905.95c-0.37-0.21-0.77-0.38-1.21-0.48c-0.95-0.21-1.9-0.09-2.73,0.29
		l-32.04-51.31c0.06-0.05,0.11-0.09,0.16-0.14l42.88,36.4c-0.27,0.41-0.47,0.87-0.58,1.38c-0.34,1.48,0.15,2.96,1.15,3.97
		L715.3,905.95z M716.17,906.62l7.63-9.89c0.37,0.21,0.77,0.38,1.21,0.48c1.12,0.25,2.24,0.04,3.15-0.51l8.08,10.19l-18.92,1.81
		C717.13,907.91,716.73,907.19,716.17,906.62z M763.24,941.4L717,911.48c0.13-0.28,0.24-0.58,0.31-0.89c0.06-0.27,0.09-0.54,0.1-0.8
		l19.63-1.88l26.39,33.28C763.37,941.25,763.3,941.33,763.24,941.4z M767.45,939.99c-1.12-0.25-2.24-0.04-3.15,0.51l-25.94-32.71
		l101.45-9.71c0.06,0.27,0.15,0.53,0.26,0.78l-70.23,42.64C769.26,940.76,768.43,940.21,767.45,939.99z M869.87,939.97
		c-0.04,0.18-0.06,0.35-0.08,0.52l-99.06,2.99c-0.02-0.1-0.04-0.21-0.06-0.31l82.75-31.34l17.78,25.9
		C870.55,938.3,870.07,939.07,869.87,939.97z M876.16,937.2c-0.36-0.21-0.75-0.36-1.17-0.46c-1.02-0.23-2.03-0.08-2.89,0.37
		l-17.63-25.68l55.16-20.9c0.19,0.47,0.47,0.9,0.81,1.27L876.16,937.2z M909.4,887.95c-0.04,0.15-0.06,0.3-0.08,0.45l-61.2,7.65
		c-0.15-0.59-0.43-1.13-0.81-1.61l40.04-41.74l23.59,32.83C910.19,886.11,909.63,886.95,909.4,887.95z M913.4,884.63
		c-0.53,0.02-1.03,0.14-1.51,0.34l-23.76-33.08l27.57-28.74c0.42,0.28,0.89,0.49,1.41,0.61c0.19,0.04,0.38,0.07,0.57,0.09
		L913.4,884.63z M917.5,887.21c-0.52-1.21-1.59-2.17-2.98-2.48c-0.01,0-0.01,0-0.02,0l4.29-60.91c0.41-0.08,0.81-0.21,1.17-0.39
		l33.02,49.31c-1.6,1.07-2.29,3.06-1.7,4.88L917.5,887.21z M917.92,889.32l-0.17,0.52l0,0c0.12-0.53,0.13-1.07,0.06-1.58l33.97-9.65
		c1.18,1.82,3.56,2.5,5.53,1.5c0.13-0.06,0.25-0.13,0.36-0.21l6.17,9.04l11.76,17.56c-0.17,0.17-0.32,0.34-0.46,0.53
		c-0.14,0.16-0.26,0.33-0.38,0.52L917.92,889.32z M1055.6,906.71l-72.77,2.18c-0.07-0.43-0.2-0.86-0.41-1.27
		c-0.25-0.49-0.59-0.91-0.97-1.25l12.4-18.13l61.79,18.22C1055.62,906.55,1055.61,906.63,1055.6,906.71z M1055.95,905.4
		l-61.44-18.12l22.37-32.7c1.18,0.6,2.62,0.65,3.9,0c0,0,0.01-0.01,0.02-0.01l35.82,49.77
		C1056.33,904.67,1056.11,905.02,1055.95,905.4z M1059.41,902.87c-0.5,0.06-1,0.2-1.48,0.44c-0.18,0.09-0.34,0.2-0.5,0.31
		l-35.74-49.67c0.39-0.35,0.71-0.77,0.94-1.23l39.59,10.27L1059.41,902.87z M1123.17,889.42l-59.2,16.41
		c-0.07-0.21-0.15-0.43-0.26-0.64c-0.65-1.29-1.86-2.1-3.19-2.3l2.8-39.63l77.92,20.21c0,0.3,0.04,0.61,0.12,0.91L1123.17,889.42z
		 M1141.36,882.36l-77.96-20.22l4.11-58.14c0.58-0.03,1.15-0.18,1.7-0.46c0.19-0.1,0.37-0.21,0.54-0.33l72.09,77.96
		C1141.62,881.54,1141.46,881.94,1141.36,882.36z M1145.05,879.1c-0.5,0.05-1,0.2-1.47,0.43c-0.4,0.21-0.74,0.46-1.05,0.75
		l-71.97-77.83c0.39-0.47,0.67-1.01,0.83-1.59l80.38,11.79L1145.05,879.1z M1147.12,879.38c-0.31-0.12-0.63-0.21-0.95-0.26
		l6.71-66.31l26.96,3.95c0,0.66,0.15,1.32,0.47,1.95c0.31,0.61,0.75,1.12,1.27,1.5L1147.12,879.38z M1182.18,812.94
		c-1.13,0.58-1.9,1.59-2.2,2.74l-26.99-3.96l8.13-80.36c0.13,0,0.27-0.01,0.41-0.03l7.28,28.19l13.74,53.26
		C1182.42,812.82,1182.3,812.87,1182.18,812.94z M1185.5,812.7c-0.6-0.21-1.24-0.27-1.89-0.2l-13.83-53.58l-7.2-27.88
		c0.12-0.05,0.23-0.1,0.35-0.16c0.63-0.32,1.15-0.78,1.54-1.32l47.9,25.84L1185.5,812.7z M1213.36,755.93l73.02,39.38
		c-0.17,0.52-0.24,1.08-0.19,1.64l-97.95,18.56c-0.07-0.24-0.16-0.47-0.28-0.7c-0.35-0.69-0.86-1.24-1.46-1.64L1213.36,755.93z
		 M1208.81,851.66l-21.82-31.7c0.95-0.86,1.46-2.09,1.42-3.36l97.99-18.57c0.06,0.18,0.13,0.36,0.22,0.53L1208.81,851.66z
		 M1286.85,794.31l-73.02-39.38l10.86-23.14c1.04,0.33,2.2,0.27,3.26-0.26c0.19-0.1,0.37-0.21,0.54-0.34l58.5,62.91
		C1286.94,794.17,1286.89,794.24,1286.85,794.31z M1288.52,792.78c-0.28,0.15-0.53,0.32-0.77,0.51l-58.45-62.85
		c0.44-0.53,0.74-1.15,0.89-1.81l69.54,6.27l-9.36,57.42C1289.74,792.34,1289.11,792.48,1288.52,792.78z M1292.34,792.76
		c-0.28-0.13-0.57-0.24-0.88-0.31l9.37-57.44l27.04,2.44c0.02,0.6,0.17,1.21,0.46,1.78c0.24,0.47,0.56,0.87,0.93,1.21
		L1292.34,792.76z M1349.02,810.08c-0.93,0.48-1.62,1.24-2,2.13l-52.31-14.94c0.13-0.86,0-1.76-0.42-2.59
		c-0.26-0.51-0.61-0.95-1.03-1.31l36.89-52.29c0.76,0.4,1.62,0.56,2.48,0.47l16.78,68.36
		C1349.29,809.95,1349.15,810.01,1349.02,810.08z M1350.49,809.64l-16.78-68.35c0.13-0.05,0.27-0.11,0.4-0.18
		c0.33-0.17,0.62-0.38,0.89-0.61l43.01,37.77l-24.86,31.94C1352.36,809.74,1351.42,809.54,1350.49,809.64z M1441.58,835.32
		l-86.34-20.94c0.09-0.81-0.05-1.64-0.44-2.41c-0.21-0.41-0.47-0.77-0.78-1.07l24.82-31.89l63.17,55.47
		C1441.84,834.73,1441.7,835.02,1441.58,835.32z M1443.64,833.03c-0.33,0.16-0.62,0.37-0.89,0.6l-63.23-55.51l39.67-50.97
		c0.76,0.44,1.64,0.65,2.53,0.58l22.43,105.08C1443.99,832.87,1443.81,832.94,1443.64,833.03z M1445.88,832.57
		c-0.21-0.01-0.42-0.01-0.64,0l-22.43-105.08c0.17-0.06,0.35-0.13,0.51-0.22c0.21-0.1,0.39-0.22,0.57-0.35l35.51,37.64
		L1445.88,832.57z M1447.53,829.92l12.81-64.36l5.02,5.32c-1.04,1.28-1.3,3.1-0.51,4.67c0.42,0.83,1.08,1.46,1.85,1.86
		L1447.53,829.92z M1468.39,769.3c-0.56,0.04-1.12,0.19-1.65,0.46c-0.21,0.1-0.39,0.22-0.57,0.35l-5.56-5.89l11.43-57.44
		L1468.39,769.3z M1472.4,771.43c-0.64-1.11-1.72-1.83-2.91-2.06l3.87-66.26c0.56-0.04,1.12-0.19,1.65-0.46
		c1.24-0.63,2.04-1.78,2.27-3.04l124.52,15.66c-0.02,0.54,0.05,1.1,0.24,1.63L1472.4,771.43z M1601.99,714.19l-124.65-15.68
		c-0.01-0.19-0.05-0.37-0.09-0.55l70.62-18.08l25.59-6.55c0.05,0.12,0.1,0.24,0.16,0.36c1.07,2.1,3.62,2.94,5.73,1.9l24.2,36.41
		C1602.8,712.56,1602.26,713.33,1601.99,714.19z M1604.53,711.46l-24.25-36.48c0.84-0.73,1.35-1.75,1.45-2.83l31.46-1l-6.66,40.05
		C1605.87,711.12,1605.19,711.2,1604.53,711.46z M1607.27,775.05l-0.58-55.33c0.46-0.07,0.92-0.2,1.35-0.42
		c2.11-1.08,2.96-3.66,1.88-5.78c-0.25-0.49-0.58-0.9-0.96-1.25l24.26-38.89c0.03,0.01,0.06,0.02,0.1,0.03l-26.03,101.64
		C1607.28,775.05,1607.28,775.05,1607.27,775.05z M1609.18,775.77c-0.26-0.17-0.54-0.31-0.82-0.43l26.03-101.63
		c0.82,0.1,1.68-0.04,2.47-0.44c0.14-0.07,0.28-0.15,0.41-0.24l31.08,36.14L1609.18,775.77z M1730.49,784.89l-119.44-5.91
		c-0.04-0.54-0.19-1.09-0.45-1.61c-0.16-0.32-0.36-0.61-0.59-0.87l59.07-66.5l62.47,72.64
		C1730.97,783.28,1730.61,784.06,1730.49,784.89z M1732.79,781.69c-0.14,0.07-0.28,0.15-0.41,0.24l-62.56-72.75l24.37-27.44
		c0.96,0.65,2.16,0.9,3.32,0.64l35.34,99.29C1732.83,781.67,1732.81,781.68,1732.79,781.69z M1733.9,781.31l-35.35-99.3
		c0.37-0.19,0.69-0.42,0.98-0.69l68.33,56.67l-30.96,43.81C1736.01,781.29,1734.94,781.1,1733.9,781.31z M1744.18,839.52
		l-8.12-49.92c0.21-0.07,0.42-0.15,0.62-0.25c0.72-0.37,1.3-0.92,1.7-1.56l51.33,22.24l-42.01,30.85
		C1746.8,839.9,1745.49,839.41,1744.18,839.52z M1892.19,854.77l-143.34-10.96c0-0.66-0.14-1.33-0.46-1.96
		c-0.01-0.02-0.03-0.05-0.04-0.07l42.54-31.24l101.38,43.93C1892.24,854.57,1892.21,854.67,1892.19,854.77z M1894.45,851.82
		c-0.75,0.38-1.34,0.95-1.74,1.63l-100.79-43.68l74.06-54.4c0.94,0.99,2.31,1.47,3.66,1.29l25.14,95
		C1894.66,851.72,1894.55,851.77,1894.45,851.82z"/>
</g>
</svg>
