<?xml version="1.0" encoding="utf-8"?>
<!-- Generator: Adobe Illustrator 23.0.0, SVG Export Plug-In . SVG Version: 6.00 Build 0)  -->
<svg version="1.1" id="Calque_1" xmlns="http://www.w3.org/2000/svg" xmlns:xlink="http://www.w3.org/1999/xlink" x="0px" y="0px"
	 viewBox="0 0 55 75" style="enable-background:new 0 0 55 75;" xml:space="preserve">
<style type="text/css">
	.st0{fill:#61C5E5;}
	.st1{fill:#FFFFFF;}
</style>
<rect x="2.4" y="2.1" class="st0" width="49.9" height="70.2"/>
<path class="st1" d="M21.7,46.3c-5.7-0.6-10.2-5.4-10.2-11.2S16,24.4,21.7,23.9V46.3z M31.5,36.2h-7.6V23.8c4.8,0.4,9,3.3,11.1,7.6
	 M36.1,39.7c-1.1,6-6,10.6-12.2,11.2V38.5h7 M36.7,29.8c-2.8-5.1-8-8.2-13.9-8.2h-1.1v0.1c-7,0.5-12.5,6.3-12.5,13.4
	S14.7,48,21.7,48.6v4.6h1.1c7.9,0,17.1-6.8,15.8-19.2"/>
<path class="st1" d="M26.2,41.9h2.3v2.3h-2.3V41.9z"/>
<path class="st1" d="M30.7,41.9H33v2.3h-2.3C30.7,44.2,30.7,41.9,30.7,41.9z"/>
<path class="st1" d="M13.8,31.7h5.6V34h-5.6V31.7z"/>
<path class="st1" d="M13.8,36.2h5.6v2.3h-5.6V36.2z"/>
<path class="st1" d="M22.8,59.9h-2.3v5.6h-2.3v-7.9h-2.3v7.9h-2.1V54.3h-2.3v11.3H9.2V50.9H7v16.9h18.1v-2.3h-2.3V59.9z"/>
<path class="st1" d="M35.2,55.4H37l-2.9,2.9l-2.3-2.2l-6.4,6.4l1.6,1.6l4.8-4.8l2.3,2.3l4.5-4.5v1.8h2.2v-5.6h-5.6V55.4z"/>
<path class="st1" d="M7,6.9h2.3v2.3H7V6.9z"/>
<path class="st1" d="M11.5,6.9h15.8v2.3H11.5V6.9z"/>
<path class="st1" d="M7,11.4h2.3v2.3H7V11.4z"/>
<path class="st1" d="M11.5,11.4h15.8v2.3H11.5V11.4z"/>
<path class="st1" d="M7,15.9h2.3v2.3H7V15.9z"/>
<path class="st1" d="M11.5,15.9h15.8v2.3H11.5V15.9z"/>
<path class="st1" d="M36.3,6.9h2.3v2.3h-2.3V6.9z"/>
<path class="st1" d="M40.8,6.9h2.3v2.3h-2.3V6.9z"/>
<path class="st1" d="M45.4,6.9h2.3v2.3h-2.3V6.9z"/>
</svg>
