<?xml version="1.0" encoding="utf-8"?>
<!-- Generator: Adobe Illustrator 23.0.0, SVG Export Plug-In . SVG Version: 6.00 Build 0)  -->
<svg version="1.1" id="Calque_1" xmlns="http://www.w3.org/2000/svg" xmlns:xlink="http://www.w3.org/1999/xlink" x="0px" y="0px"
	 viewBox="0 0 55 75" style="enable-background:new 0 0 55 75;" xml:space="preserve">
<style type="text/css">
	.st0{fill:#61C5E5;}
</style>
<path class="st0" d="M52.3,2.3H2.7v70h49.7 M21.9,46.3c-5.7-0.6-10.2-5.4-10.2-11.2s4.5-10.7,10.2-11.2V46.3z M31.7,36.2h-7.6V23.8
	c4.8,0.4,9,3.3,11.1,7.6 M36.3,39.7c-1.1,6-6,10.6-12.2,11.2V38.5h7 M36.9,29.8c-2.8-5.1-8-8.2-13.9-8.2h-1.1v0.1
	c-7,0.5-12.5,6.3-12.5,13.4S14.9,48,21.9,48.6v4.6H23c7.9,0,17.1-6.8,15.8-19.2 M50.1,70.1H4.9V4.6h45.2"/>
<path class="st0" d="M26.4,41.9h2.3v2.3h-2.3V41.9z"/>
<path class="st0" d="M30.9,41.9h2.3v2.3h-2.3C30.9,44.2,30.9,41.9,30.9,41.9z"/>
<path class="st0" d="M14,31.7h5.6V34H14V31.7z"/>
<path class="st0" d="M14,36.2h5.6v2.3H14V36.2z"/>
<path class="st0" d="M23,59.9h-2.3v5.6h-2.3v-7.9h-2.3v7.9H14V54.3h-2.3v11.3H9.4V50.9H7.2v16.9h18.1v-2.3H23V59.9z"/>
<path class="st0" d="M35.4,55.4h1.8l-2.9,2.9L32,56.1l-6.4,6.4l1.6,1.6l4.8-4.8l2.3,2.3l4.5-4.5v1.8H41v-5.6h-5.6V55.4z"/>
<path class="st0" d="M7.2,6.9h2.3v2.3H7.2V6.9z"/>
<path class="st0" d="M11.7,6.9h15.8v2.3H11.7V6.9z"/>
<path class="st0" d="M7.2,11.4h2.3v2.3H7.2V11.4z"/>
<path class="st0" d="M11.7,11.4h15.8v2.3H11.7V11.4z"/>
<path class="st0" d="M7.2,15.9h2.3v2.3H7.2V15.9z"/>
<path class="st0" d="M11.7,15.9h15.8v2.3H11.7V15.9z"/>
<path class="st0" d="M36.5,6.9h2.3v2.3h-2.3V6.9z"/>
<path class="st0" d="M41,6.9h2.3v2.3H41V6.9z"/>
<path class="st0" d="M45.6,6.9h2.3v2.3h-2.3V6.9z"/>
</svg>
