<?xml version="1.0" encoding="utf-8"?>
<!-- Generator: Adobe Illustrator 23.0.0, SVG Export Plug-In . SVG Version: 6.00 Build 0)  -->
<svg version="1.1" id="Capa_1" xmlns="http://www.w3.org/2000/svg" xmlns:xlink="http://www.w3.org/1999/xlink" x="0px" y="0px"
	 viewBox="0 0 107 59" style="enable-background:new 0 0 107 59;" xml:space="preserve">
<style type="text/css">
	.st0{fill:#0E1C39;}
</style>
<g>
	<path class="st0" d="M90.3,26.9c-0.2-0.2-0.6-0.4-0.9-0.4H38.8v-9.1c0-0.5-0.3-0.9-0.8-1.2c-0.5-0.2-1-0.1-1.4,0.2L21.1,30.8
		c-0.3,0.3-0.4,0.6-0.4,1c0,0.4,0.1,0.7,0.4,0.9l15.6,14.2c0.4,0.4,0.9,0.4,1.4,0.2c0.5-0.2,0.8-0.6,0.8-1.2v-9.1h50.6
		c0.4,0,0.7-0.1,0.9-0.4c0.2-0.2,0.4-0.6,0.4-0.9v-7.8C90.7,27.4,90.6,27.1,90.3,26.9z"/>
</g>
</svg>
