<?xml version="1.0" encoding="utf-8"?>
<!-- Generator: Adobe Illustrator 23.0.0, SVG Export Plug-In . SVG Version: 6.00 Build 0)  -->
<svg version="1.1" id="Capa_1" xmlns="http://www.w3.org/2000/svg" xmlns:xlink="http://www.w3.org/1999/xlink" x="0px" y="0px"
	 viewBox="0 0 51.5 63.4" style="enable-background:new 0 0 51.5 63.4;" xml:space="preserve">
<style type="text/css">
	.st0{fill:none;stroke:#FFFFFF;stroke-width:1.7008;stroke-miterlimit:10;}
	.st1{fill:#FFFFFF;}
	.st2{fill:#49A0AE;}
</style>
<path class="st0" d="M33.8,1.8H1.4v60h47V16.4L33.8,1.8z M32.4,3.8l14,14h-14V3.8z"/>
<path class="st1" d="M11.7,27.4c0,0.3-0.2,0.6-0.6,0.6c-0.3,0-0.6-0.2-0.6-0.6c0-0.3,0.2-0.6,0.6-0.6C11.5,26.9,11.7,27.1,11.7,27.4
	z"/>
<path class="st1" d="M13.9,27.4c0,0.3-0.2,0.6-0.6,0.6c-0.3,0-0.6-0.2-0.6-0.6c0-0.3,0.2-0.6,0.6-0.6C13.7,26.9,13.9,27.1,13.9,27.4
	z"/>
<path class="st1" d="M11.7,31.8c0,0.3-0.2,0.6-0.6,0.6c-0.3,0-0.6-0.2-0.6-0.6c0-0.3,0.2-0.6,0.6-0.6C11.5,31.3,11.7,31.5,11.7,31.8
	z"/>
<path class="st1" d="M16.1,27.4c0,0.3-0.2,0.6-0.6,0.6c-0.3,0-0.6-0.2-0.6-0.6c0-0.3,0.2-0.6,0.6-0.6C15.9,26.9,16.1,27.1,16.1,27.4
	z"/>
<path class="st1" d="M41.8,20.8H8.5c-1,0-1.8,0.8-1.8,1.8v33.3c0,1,0.8,1.8,1.8,1.8h33.3c1,0,1.8-0.8,1.8-1.8V22.6
	C43.6,21.6,42.8,20.8,41.8,20.8z M12.8,50.3v-3.7h3.7v3.7H12.8z M7.9,50.3v-3.7h3.7v3.7H7.9z M16.5,26.9v3.7h-3.7v-3.7H16.5z
	 M21.4,26.9v3.7h-3.7v-3.7H21.4z M42.4,23.2v17.2h-1.2v-8c0-0.7-0.6-1.2-1.2-1.2h-2.5c-0.7,0-1.2,0.6-1.2,1.2v8H35V29.4
	c0-0.7-0.6-1.2-1.2-1.2h-2.5c-0.7,0-1.2,0.6-1.2,1.2v11.1h-1.2v-4.3c0-0.7-0.6-1.2-1.2-1.2h-2.5c-0.7,0-1.2,0.6-1.2,1.2v4.3h-1.2
	V23.2H42.4z M17.7,36.8h3.7v3.7h-3.7V36.8z M16.5,40.5h-3.7v-3.7h3.7V40.5z M21.4,35.6h-3.7v-3.7h3.7V35.6z M16.5,35.6h-3.7v-3.7
	h3.7V35.6z M11.6,35.6H7.9v-3.7h3.7V35.6z M11.6,36.8v3.7H7.9v-3.7H11.6z M11.6,41.7v3.7H7.9v-3.7H11.6z M12.8,41.7h3.7v3.7h-3.7
	V41.7z M17.7,41.7h3.7v3.7h-3.7V41.7z M27.6,40.5h-2.5v-4.3h2.5V40.5z M33.8,40.5h-2.5V29.4h2.5V40.5z M39.9,40.5h-2.5v-8h2.5V40.5z
	 M11.6,30.6H7.9v-3.7h3.7V30.6z M17.7,46.6h3.7v3.7h-3.7V46.6z M42.4,55.9c0,0.3-0.3,0.6-0.6,0.6H8.5c-0.3,0-0.6-0.3-0.6-0.6v-4.3
	h34.5V55.9z"/>
<path class="st1" d="M16.1,31.8c0,0.3-0.2,0.6-0.6,0.6c-0.3,0-0.6-0.2-0.6-0.6c0-0.3,0.2-0.6,0.6-0.6C15.9,31.3,16.1,31.5,16.1,31.8
	z"/>
<path class="st1" d="M16.1,36.2c0,0.3-0.2,0.6-0.6,0.6c-0.3,0-0.6-0.2-0.6-0.6c0-0.3,0.2-0.6,0.6-0.6C15.9,35.7,16.1,35.9,16.1,36.2
	z"/>
<path class="st1" d="M20.5,40.6c0,0.3-0.2,0.6-0.6,0.6c-0.3,0-0.6-0.2-0.6-0.6c0-0.3,0.2-0.6,0.6-0.6C20.3,40.1,20.5,40.3,20.5,40.6
	z"/>
<path class="st1" d="M12.3,49.5c0,0.3-0.2,0.6-0.6,0.6c-0.3,0-0.6-0.2-0.6-0.6s0.2-0.6,0.6-0.6C12,48.9,12.3,49.2,12.3,49.5z"/>
<path class="st1" d="M16.1,45.1c0,0.3-0.2,0.6-0.6,0.6c-0.3,0-0.6-0.2-0.6-0.6c0-0.3,0.2-0.6,0.6-0.6C15.9,44.5,16.1,44.8,16.1,45.1
	z"/>
<path class="st1" d="M20.5,45.1c0,0.3-0.2,0.6-0.6,0.6c-0.3,0-0.6-0.2-0.6-0.6c0-0.3,0.2-0.6,0.6-0.6C20.3,44.5,20.5,44.8,20.5,45.1
	z"/>
<rect x="25.1" y="42.8" class="st2" width="14.8" height="0.7"/>
<rect x="23.3" y="45.4" class="st2" width="18.6" height="0.7"/>
<rect x="23.3" y="48" class="st2" width="18.6" height="0.7"/>
<rect x="11.2" y="53.4" class="st1" width="28.2" height="0.3"/>
<rect x="10.9" y="54.5" class="st1" width="28.2" height="0.3"/>
<rect x="10.8" y="55.6" class="st1" width="14.9" height="0.3"/>
<rect x="9.5" y="26.9" class="st1" width="12.1" height="1.9"/>
</svg>
