<?xml version="1.0" encoding="utf-8"?>
<!-- Generator: Adobe Illustrator 23.0.0, SVG Export Plug-In . SVG Version: 6.00 Build 0)  -->
<svg version="1.1" id="Capa_1" xmlns="http://www.w3.org/2000/svg" xmlns:xlink="http://www.w3.org/1999/xlink" x="0px" y="0px"
	 viewBox="0 0 50.4 50.6" style="enable-background:new 0 0 50.4 50.6;" xml:space="preserve">
<style type="text/css">
	.st0{fill:#61C5E5;}
</style>
<g>
	<path class="st0" d="M37.4,10.9c1.9,0,3.5-1.5,3.5-3.5V3.8c0-1.9-1.6-3.5-3.5-3.5s-3.5,1.5-3.5,3.5v3.6
		C33.9,9.3,35.5,10.9,37.4,10.9z"/>
	<path class="st0" d="M49.7,6.3h-7v1.8c0,2.9-2.4,5.3-5.3,5.3c-2.9,0-5.3-2.4-5.3-5.3V6.3H18.1v1.8c0,2.9-2.4,5.3-5.3,5.3
		S7.5,11,7.5,8.1V6.3l-7-0.1v44.1H4h42.2l3.5,0L49.7,6.3z M46.3,46.8H4V18.6h42.2L46.3,46.8L46.3,46.8z"/>
	<path class="st0" d="M12.8,10.9c1.9,0,3.5-1.5,3.5-3.5V3.8c0-1.9-1.6-3.5-3.5-3.5S9.3,1.9,9.3,3.8v3.6C9.3,9.3,10.8,10.9,12.8,10.9
		z"/>
	<rect x="18.1" y="22.4" class="st0" width="5.5" height="4.9"/>
	<rect x="27.1" y="22.4" class="st0" width="5.6" height="4.9"/>
	<rect x="35.4" y="22.4" class="st0" width="5.5" height="4.9"/>
	<rect x="18.1" y="30.6" class="st0" width="5.5" height="4.9"/>
	<rect x="27.1" y="30.6" class="st0" width="5.6" height="4.9"/>
	<rect x="35.4" y="30.6" class="st0" width="5.5" height="4.9"/>
	<rect x="18.1" y="38.8" class="st0" width="5.5" height="4.9"/>
	<rect x="9.3" y="30.6" class="st0" width="5.5" height="4.9"/>
	<rect x="9.3" y="38.8" class="st0" width="5.5" height="4.9"/>
	<rect x="27.1" y="38.8" class="st0" width="5.6" height="4.9"/>
	<rect x="35.4" y="38.8" class="st0" width="5.5" height="4.9"/>
</g>
</svg>
