<?xml version="1.0" encoding="utf-8"?>
<!-- Generator: Adobe Illustrator 23.0.0, SVG Export Plug-In . SVG Version: 6.00 Build 0)  -->
<svg version="1.1" id="Calque_1" xmlns="http://www.w3.org/2000/svg" xmlns:xlink="http://www.w3.org/1999/xlink" x="0px" y="0px"
	 viewBox="0 0 26 26" style="enable-background:new 0 0 26 26;" xml:space="preserve">
<style type="text/css">
	.st0{fill:#0E1C39;}
</style>
<path class="st0" d="M3.2,13.8C3.1,13.6,3,13.4,3,13.2c0-0.2,0.1-0.4,0.2-0.5l1.1-1.1c0.3-0.3,0.8-0.3,1.1,0l0.1,0.1l4.2,4.5
	c0.2,0.2,0.4,0.2,0.5,0L20.5,5.5h0.1l0,0c0.3-0.3,0.8-0.3,1.1,0l1.1,1.1c0.3,0.3,0.3,0.8,0,1.1l0,0L10.5,20.5
	c-0.2,0.2-0.3,0.2-0.5,0.2s-0.4-0.1-0.5-0.2l-6-6.5C3.4,14,3.2,13.8,3.2,13.8z"/>
</svg>
