<?xml version="1.0" encoding="utf-8"?>
<!-- Generator: Adobe Illustrator 23.0.0, SVG Export Plug-In . SVG Version: 6.00 Build 0)  -->
<svg version="1.1" id="Calque_1" xmlns="http://www.w3.org/2000/svg" xmlns:xlink="http://www.w3.org/1999/xlink" x="0px" y="0px"
	 viewBox="0 0 73.2 69.7" style="enable-background:new 0 0 73.2 69.7;" xml:space="preserve">
<style type="text/css">
	.st0{fill:#FFFFFF;stroke:#FFFFFF;stroke-width:0.2268;stroke-miterlimit:10;}
</style>
<path class="st0" d="M64.6,28.9h-13v-18c0-0.6-0.4-1-1-1h-5v-4c0-0.6-0.4-1-1-1h-30c-0.3,0-0.5,0.1-0.7,0.3l-8,8
	c-0.2,0.2-0.3,0.4-0.3,0.7v36c0,0.6,0.4,1,1,1h5v4c0,0.6,0.4,1,1,1h5v8c0,0.6,0.4,1,1,1h46c0.6,0,1-0.4,1-1v-34
	C65.6,29.3,65.2,28.9,64.6,28.9z M13.6,8.3v4.6H9.1L13.6,8.3z M7.6,48.9v-34h7c0.6,0,1-0.4,1-1v-7h28v3h-23c-0.3,0-0.5,0.1-0.7,0.3
	l-8,8c-0.2,0.2-0.3,0.4-0.3,0.7v30H7.6z M19.6,13.3v4.6h-4.6L19.6,13.3z M17.6,37.9v16h-4v-34h7c0.6,0,1-0.4,1-1v-7h28v17h-7
	c-0.3,0-0.5,0.1-0.7,0.3l-7.7,7.7H18.6C18.1,36.9,17.6,37.3,17.6,37.9z M63.6,62.9h-44v-24h15c0.3,0,0.5-0.1,0.7-0.3l7.7-7.7h20.6
	V62.9z"/>
<path class="st0" d="M57.9,36.2l3-3l1.4,1.4l-3,3L57.9,36.2z"/>
<path class="st0" d="M52.9,36.2l4-4l1.4,1.4l-4,4L52.9,36.2z"/>
<path class="st0" d="M21.6,40.9h2v2h-2V40.9z"/>
<path class="st0" d="M25.6,40.9h2v2h-2V40.9z"/>
<path class="st0" d="M29.6,40.9h2v2h-2V40.9z"/>
<path class="st0" d="M15.6,21.9h10v2h-10V21.9z"/>
<path class="st0" d="M15.6,25.9h24.8v2H15.6V25.9z"/>
<path class="st0" d="M23.6,17.9h13v2h-13V17.9z"/>
<path class="st0" d="M15.6,29.9h12v2h-12V29.9z"/>
<path class="st0" d="M27.6,21.9h11v2h-11V21.9z"/>
<path class="st0" d="M29.6,29.9h6.6v2h-6.6V29.9z"/>
</svg>
