<?xml version="1.0" encoding="utf-8"?>
<!-- Generator: Adobe Illustrator 23.0.0, SVG Export Plug-In . SVG Version: 6.00 Build 0)  -->
<svg version="1.1" id="Calque_1" xmlns="http://www.w3.org/2000/svg" xmlns:xlink="http://www.w3.org/1999/xlink" x="0px" y="0px"
	 viewBox="0 0 73.2 69.7" style="enable-background:new 0 0 73.2 69.7;" xml:space="preserve">
<style type="text/css">
	.st0{fill:#FFFFFF;stroke:#49A0AE;stroke-miterlimit:10;}
	.st1{fill:#FFFFFF;stroke:#49A0AE;stroke-width:0.2268;stroke-miterlimit:10;}
	.st2{fill:#49A0AE;stroke:#FFFFFF;stroke-width:0.2268;stroke-miterlimit:10;}
</style>
<g>
	<polygon class="st0" points="19.6,13.3 15.1,17.9 19.6,17.9 	"/>
	<path class="st0" d="M20.6,9.9h23v-3h-28v7c0,0.6-0.4,1-1,1h-7v34h4v-30c0-0.3,0.1-0.5,0.3-0.7l8-8C20.1,10,20.4,9.9,20.6,9.9z"/>
	<polygon class="st0" points="13.6,8.3 9.1,12.9 13.6,12.9 	"/>
	<path class="st0" d="M41.9,29.2c0.2-0.2,0.4-0.3,0.7-0.3h7v-17h-28v7c0,0.6-0.4,1-1,1h-7v34h4v-16c0-0.6,0.4-1,1-1h15.6L41.9,29.2z
		"/>
	<path class="st0" d="M35.4,38.6c-0.2,0.2-0.4,0.3-0.7,0.3h-15v24h44v-32H43.1L35.4,38.6z"/>
	<path class="st1" d="M64.6,28.9h-13v-18c0-0.6-0.4-1-1-1h-5v-4c0-0.6-0.4-1-1-1h-30c-0.3,0-0.5,0.1-0.7,0.3l-8,8
		c-0.2,0.2-0.3,0.4-0.3,0.7v36c0,0.6,0.4,1,1,1h5v4c0,0.6,0.4,1,1,1h5v8c0,0.6,0.4,1,1,1h46c0.6,0,1-0.4,1-1v-34
		C65.6,29.3,65.2,28.9,64.6,28.9z M13.6,8.3v4.6H9.1L13.6,8.3z M11.9,18.2c-0.2,0.2-0.3,0.4-0.3,0.7v30h-4v-34h7c0.6,0,1-0.4,1-1v-7
		h28v3h-23c-0.3,0-0.5,0.1-0.7,0.3L11.9,18.2z M19.6,13.3v4.6h-4.6L19.6,13.3z M17.6,37.9v16h-4v-34h7c0.6,0,1-0.4,1-1v-7h28v17h-7
		c-0.3,0-0.5,0.1-0.7,0.3l-7.7,7.7H18.6C18.1,36.9,17.6,37.3,17.6,37.9z M63.6,62.9h-44v-24h15c0.3,0,0.5-0.1,0.7-0.3l7.7-7.7h20.6
		V62.9z"/>
</g>
<path class="st2" d="M57.9,36.2l3-3l1.4,1.4l-3,3L57.9,36.2z"/>
<path class="st2" d="M52.9,36.2l4-4l1.4,1.4l-4,4L52.9,36.2z"/>
<path class="st2" d="M21.6,40.9h2v2h-2V40.9z"/>
<path class="st2" d="M25.6,40.9h2v2h-2V40.9z"/>
<path class="st2" d="M29.6,40.9h2v2h-2V40.9z"/>
<path class="st2" d="M15.6,21.9h10v2h-10V21.9z"/>
<path class="st2" d="M15.6,25.9h24.8v2H15.6V25.9z"/>
<path class="st2" d="M23.6,17.9h13v2h-13V17.9z"/>
<path class="st2" d="M15.6,29.9h12v2h-12V29.9z"/>
<path class="st2" d="M27.6,21.9h11v2h-11V21.9z"/>
<path class="st2" d="M29.6,29.9h6.6v2h-6.6V29.9z"/>
</svg>
