<?xml version="1.0" encoding="utf-8"?>
<!-- Generator: Adobe Illustrator 23.0.0, SVG Export Plug-In . SVG Version: 6.00 Build 0)  -->
<svg version="1.1" id="Calque_1" xmlns="http://www.w3.org/2000/svg" xmlns:xlink="http://www.w3.org/1999/xlink" x="0px" y="0px"
	 viewBox="0 0 444 444" style="enable-background:new 0 0 444 444;" xml:space="preserve">
<path d="M343,376c0,4.4-3.6,8-8,8h-22l54,60l54-60h-22c-4.4,0-8-3.6-8-8V240h-48V376z"/>
<path d="M111,72V10.3L35.5,80H103C107.4,80,111,76.4,111,72z"/>
<path d="M367,0H127v72c0,13.3-10.7,24-24,24H23v296c0,4.4,3.6,8,8,8h274.8l-16.8-18.6c-2.1-2.4-2.6-5.7-1.4-8.6
	c1.3-2.9,4.2-4.7,7.3-4.7h32V232c0-4.4,3.6-8,8-8h40V8C375,3.6,371.4,0,367,0z M79,144h32c4.4,0,8,3.6,8,8s-3.6,8-8,8H79
	c-4.4,0-8-3.6-8-8S74.6,144,79,144z M303,352H79c-4.4,0-8-3.6-8-8s3.6-8,8-8h224c4.4,0,8,3.6,8,8S307.4,352,303,352z M303,304H79
	c-4.4,0-8-3.6-8-8s3.6-8,8-8h224c4.4,0,8,3.6,8,8S307.4,304,303,304z M303,256H79c-4.4,0-8-3.6-8-8s3.6-8,8-8h224c4.4,0,8,3.6,8,8
	S307.4,256,303,256z M319,208H79c-4.4,0-8-3.6-8-8s3.6-8,8-8h240c4.4,0,8,3.6,8,8S323.4,208,319,208z M319,160H143c-4.4,0-8-3.6-8-8
	s3.6-8,8-8h176c4.4,0,8,3.6,8,8S323.4,160,319,160z"/>
</svg>
