<?xml version="1.0" encoding="utf-8"?>
<!-- Generator: Adobe Illustrator 23.0.0, SVG Export Plug-In . SVG Version: 6.00 Build 0)  -->
<svg version="1.1" id="Capa_1" xmlns="http://www.w3.org/2000/svg" xmlns:xlink="http://www.w3.org/1999/xlink" x="0px" y="0px"
	 viewBox="0 0 60 60" style="enable-background:new 0 0 60 60;" xml:space="preserve">
<style type="text/css">
	.st0{fill:none;stroke:#FFFFFF;stroke-width:1.9843;stroke-miterlimit:10;}
</style>
<path class="st0" d="M38.9,0H6.5v60h47V14.6L38.9,0z M37.5,2l14,14h-14V2z M24.1,41.8l-5,4c-0.2,0.1-0.4,0.2-0.6,0.2
	c-0.3,0-0.5-0.1-0.7-0.3l-2-2c-0.4-0.4-0.4-1,0-1.4c0.4-0.4,1-0.4,1.4,0l1.4,1.4l4.3-3.4c0.4-0.3,1.1-0.3,1.4,0.2
	C24.6,40.8,24.6,41.4,24.1,41.8z M24.1,30.8l-5,4c-0.2,0.1-0.4,0.2-0.6,0.2c-0.3,0-0.5-0.1-0.7-0.3l-2-2c-0.4-0.4-0.4-1,0-1.4
	c0.4-0.4,1-0.4,1.4,0l1.4,1.4l4.3-3.4c0.4-0.3,1.1-0.3,1.4,0.2C24.6,29.8,24.6,30.4,24.1,30.8z M24.1,19.8l-5,4
	c-0.2,0.1-0.4,0.2-0.6,0.2c-0.3,0-0.5-0.1-0.7-0.3l-2-2c-0.4-0.4-0.4-1,0-1.4c0.4-0.4,1-0.4,1.4,0l1.4,1.4l4.3-3.4
	c0.4-0.3,1.1-0.3,1.4,0.2C24.6,18.8,24.6,19.4,24.1,19.8z M42.5,45h-16c-0.6,0-1-0.4-1-1s0.4-1,1-1h16c0.6,0,1,0.4,1,1
	S43.1,45,42.5,45z M42.5,34h-16c-0.6,0-1-0.4-1-1s0.4-1,1-1h16c0.6,0,1,0.4,1,1S43.1,34,42.5,34z M42.5,23h-16c-0.6,0-1-0.4-1-1
	s0.4-1,1-1h16c0.6,0,1,0.4,1,1S43.1,23,42.5,23z M51.9,54.4h-2.6v2.6h-1.5v-2.6h-2.6v-1.5h2.6v-2.7h1.5v2.7h2.6V54.4z"/>
</svg>
