<?xml version="1.0" encoding="utf-8"?>
<!-- Generator: Adobe Illustrator 23.0.0, SVG Export Plug-In . SVG Version: 6.00 Build 0)  -->
<svg version="1.1" id="Capa_1" xmlns="http://www.w3.org/2000/svg" xmlns:xlink="http://www.w3.org/1999/xlink" x="0px" y="0px"
	 viewBox="0 0 132.8 132.8" style="enable-background:new 0 0 132.8 132.8;" xml:space="preserve">
<style type="text/css">
	.st0{fill:#FFFFFF;}
</style>
<g>
	<path class="st0" d="M119.3,92.9c0,2.3-0.7,4.5-1.7,6.4L84.2,61.8l33.1-28.9c1.3,2,2.1,4.4,2.1,7L119.3,92.9L119.3,92.9z
		 M66.4,68.6l46-40.3c-1.9-1-4-1.7-6.3-1.7H26.7c-2.3,0-4.4,0.6-6.3,1.7L66.4,68.6z M79.2,66.2l-10.7,9.3c-0.6,0.5-1.4,0.8-2.2,0.8
		c-0.8,0-1.6-0.3-2.2-0.8l-10.7-9.3l-33.9,37.9c2,1.3,4.4,2,7,2h79.4c2.6,0,5-0.8,7-2L79.2,66.2z M15.5,32.9c-1.3,2-2.1,4.4-2.1,7
		v53c0,2.3,0.7,4.5,1.7,6.4l33.4-37.4L15.5,32.9z"/>
</g>
</svg>
