<?xml version="1.0" encoding="utf-8"?>
<!-- Generator: Adobe Illustrator 23.0.0, SVG Export Plug-In . SVG Version: 6.00 Build 0)  -->
<svg version="1.1" id="Capa_1" xmlns="http://www.w3.org/2000/svg" xmlns:xlink="http://www.w3.org/1999/xlink" x="0px" y="0px"
	 viewBox="0 0 171.9 171.9" style="enable-background:new 0 0 171.9 171.9;" xml:space="preserve">
<style type="text/css">
	.st0{fill:#FFFFFF;}
</style>
<g>
	<path id="Facebook_Places" class="st0" d="M132.5,50.3c-0.5-1.9-1.5-3.9-2.3-5.7C121.1,22.8,101.3,15,85.3,15
		c-21.4,0-45,14.4-48.2,44v6.1c0,0.3,0.1,2.5,0.2,3.7c1.8,14.1,12.9,29.1,21.2,43.2c9,15.1,18.2,30,27.4,44.9
		c5.7-9.7,11.3-19.5,16.9-29c1.5-2.8,3.3-5.5,4.8-8.2c1-1.8,2.9-3.5,3.8-5.2c9-16.4,23.4-32.9,23.4-49.2v-6.7
		C134.8,56.9,132.6,50.7,132.5,50.3z M85.7,80.7c-6.3,0-13.2-3.2-16.6-11.9c-0.5-1.4-0.5-4.2-0.5-4.4v-3.9
		c0-11.1,9.4-16.1,17.6-16.1c10.1,0,17.9,8.1,17.9,18.2C104.1,72.6,95.8,80.7,85.7,80.7z"/>
</g>
</svg>
