<?xml version="1.0" encoding="utf-8"?>
<!-- Generator: Adobe Illustrator 23.0.0, SVG Export Plug-In . SVG Version: 6.00 Build 0)  -->
<svg version="1.1" id="Capa_1" xmlns="http://www.w3.org/2000/svg" xmlns:xlink="http://www.w3.org/1999/xlink" x="0px" y="0px"
	 viewBox="0 0 106 81" style="enable-background:new 0 0 106 81;" xml:space="preserve">
<style type="text/css">
	.st0{fill:#FFFFFF;}
</style>
<g>
	<path class="st0" d="M71.7,26.2H30.9c-2.5,0-4.6,2.1-4.6,4.6v25.1c0,2.5,2.1,4.6,4.6,4.6h40.8c2.5,0,4.6-2.1,4.6-4.6V30.8
		C76.3,28.2,74.3,26.2,71.7,26.2z M73.5,55.9c0,1-0.8,1.7-1.7,1.7H30.9c-1,0-1.7-0.8-1.7-1.7V30.8c0-1,0.8-1.7,1.7-1.7h40.8
		c1,0,1.7,0.8,1.7,1.7V55.9z"/>
	<path class="st0" d="M67.8,34.4H54.6c-0.6,0-1.2,0.5-1.2,1.2s0.5,1.2,1.2,1.2h13.2c0.6,0,1.2-0.5,1.2-1.2S68.4,34.4,67.8,34.4z"/>
	<path class="st0" d="M67.8,50H54.6c-0.6,0-1.2,0.5-1.2,1.2c0,0.6,0.5,1.2,1.2,1.2h13.2c0.6,0,1.2-0.5,1.2-1.2
		C68.9,50.5,68.4,50,67.8,50z"/>
	<path class="st0" d="M67.8,41h-8c-0.6,0-1.2,0.5-1.2,1.2c0,0.6,0.5,1.2,1.2,1.2h8c0.6,0,1.2-0.5,1.2-1.2C68.9,41.6,68.4,41,67.8,41
		z"/>
	<path class="st0" d="M67.8,45.5h-8c-0.6,0-1.2,0.5-1.2,1.2c0,0.6,0.5,1.2,1.2,1.2h8c0.6,0,1.2-0.5,1.2-1.2
		C68.9,46,68.4,45.5,67.8,45.5z"/>
	<path class="st0" d="M42.7,43.9c3.3,0,5.9-2.7,5.9-5.9c0-3.3-2.7-5.9-5.9-5.9c-3.3,0-5.9,2.7-5.9,5.9
		C36.8,41.2,39.4,43.9,42.7,43.9z M42.7,34.9c1.7,0,3,1.4,3,3c0,1.7-1.4,3-3,3c-1.7,0-3-1.4-3-3C39.6,36.3,41,34.9,42.7,34.9z"/>
	<path class="st0" d="M45,44.9h-4.5c-3.2,0-5.8,2.6-5.8,5.8v2.5c0,0.8,0.6,1.4,1.4,1.4s1.4-0.6,1.4-1.4v-2.5c0-1.6,1.3-2.9,2.9-2.9
		H45c1.6,0,2.9,1.3,2.9,2.9v2.5c0,0.8,0.6,1.4,1.4,1.4c0.8,0,1.4-0.6,1.4-1.4v-2.5C50.7,47.5,48.1,44.9,45,44.9z"/>
</g>
</svg>
