<?xml version="1.0" encoding="utf-8"?>
<!-- Generator: Adobe Illustrator 23.0.0, SVG Export Plug-In . SVG Version: 6.00 Build 0)  -->
<svg version="1.1" id="Capa_1" xmlns="http://www.w3.org/2000/svg" xmlns:xlink="http://www.w3.org/1999/xlink" x="0px" y="0px"
	 viewBox="0 0 42 42" style="enable-background:new 0 0 42 42;" xml:space="preserve">
<style type="text/css">
	.st0{fill:#0E1C39;}
</style>
<path class="st0" d="M6.5,42c0.6,0,1-0.4,1-1V22.9l27.4,18.9c0.3,0.2,0.7,0.2,1,0.1c0.3-0.2,0.5-0.5,0.5-0.9V1
	c0-0.4-0.2-0.7-0.5-0.9C35.8,0,35.7,0,35.5,0c-0.2,0-0.4,0.1-0.6,0.2L7.5,19.1V1c0-0.6-0.4-1-1-1s-1,0.4-1,1v40
	C5.5,41.6,5.9,42,6.5,42z"/>
</svg>
