<?xml version="1.0" encoding="utf-8"?>
<!-- Generator: Adobe Illustrator 23.0.0, SVG Export Plug-In . SVG Version: 6.00 Build 0)  -->
<svg version="1.1" id="Capa_1" xmlns="http://www.w3.org/2000/svg" xmlns:xlink="http://www.w3.org/1999/xlink" x="0px" y="0px"
	 viewBox="0 0 103 99" style="enable-background:new 0 0 103 99;" xml:space="preserve">
<style type="text/css">
	.st0{fill:#0E1C39;}
</style>
<g>
	<g>
		<path class="st0" d="M68.5,65.7L65.7,61c-1.3-2.2-2-4.7-2-7.3v-4.2c0-5.3-3.5-9.7-8.3-11.2v-3c0-1.8-1.5-3.3-3.3-3.3
			c-1.8,0-3.3,1.5-3.3,3.3v3c-4.8,1.4-8.3,5.9-8.3,11.2v4.2c0,2.6-0.7,5.1-2,7.3l-2.9,4.8c-0.2,0.3-0.2,0.6,0,0.8
			c0.1,0.3,0.4,0.4,0.7,0.4h31.7c0.3,0,0.6-0.2,0.7-0.4C68.7,66.3,68.7,66,68.5,65.7z"/>
	</g>
</g>
<g>
	<g>
		<path class="st0" d="M46.8,68.7c0.9,2,2.9,3.3,5.2,3.3c2.3,0,4.3-1.4,5.2-3.3H46.8z"/>
	</g>
</g>
</svg>
