<?xml version="1.0" encoding="utf-8"?>
<!-- Generator: Adobe Illustrator 23.0.0, SVG Export Plug-In . SVG Version: 6.00 Build 0)  -->
<svg version="1.1" id="Calque_1" xmlns="http://www.w3.org/2000/svg" xmlns:xlink="http://www.w3.org/1999/xlink" x="0px" y="0px"
	 viewBox="0 0 55 75" style="enable-background:new 0 0 55 75;" xml:space="preserve">
<style type="text/css">
	.st0{fill:none;stroke:#FFFFFF;stroke-width:1.9843;stroke-miterlimit:10;}
	.st1{fill:#FFFFFF;}
</style>
<rect x="3.6" y="7.3" class="st0" width="47.7" height="60.4"/>
<g>
	<path class="st1" d="M12.2,21.5c0-0.3-0.3-0.6-0.6-0.6s-0.6,0.3-0.6,0.6V43H7.9v8.6h3.1v1.8c0,0.3,0.3,0.6,0.6,0.6s0.6-0.3,0.6-0.6
		v-1.8h3.1V43h-3.1V21.5z M14,50.5H9.1v-6.2H14V50.5z"/>
	<path class="st1" d="M22,21.5c0-0.3-0.3-0.6-0.6-0.6c-0.3,0-0.6,0.3-0.6,0.6v15.4h-3.1v8.6h3.1v8c0,0.3,0.3,0.6,0.6,0.6
		c0.3,0,0.6-0.3,0.6-0.6v-8h3.1v-8.6H22V21.5z M23.9,44.3H19v-6.2h4.9V44.3z"/>
	<path class="st1" d="M31.9,21.5c0-0.3-0.3-0.6-0.6-0.6c-0.3,0-0.6,0.3-0.6,0.6v9.3h-3.1v8.6h3.1v14.2c0,0.3,0.3,0.6,0.6,0.6
		c0.3,0,0.6-0.3,0.6-0.6V39.3H35v-8.6h-3.1V21.5z M33.8,38.1h-4.9V32h4.9V38.1z"/>
	<path class="st1" d="M44.9,23.3h-3.1v-1.9c0-0.3-0.3-0.6-0.6-0.6c-0.3,0-0.6,0.3-0.6,0.6v1.9h-3.1V32h3.1v21.6
		c0,0.3,0.3,0.6,0.6,0.6c0.3,0,0.6-0.3,0.6-0.6V32h3.1V23.3z M43.6,30.7h-4.9v-6.2h4.9V30.7z"/>
	<path class="st1" d="M20.2,40c0,0.3,0.3,0.6,0.6,0.6H22c0.3,0,0.6-0.3,0.6-0.6s-0.3-0.6-0.6-0.6h-1.2C20.5,39.3,20.2,39.6,20.2,40z
		"/>
	<path class="st1" d="M31.9,35.7h-1.2c-0.3,0-0.6,0.3-0.6,0.6s0.3,0.6,0.6,0.6h1.2c0.3,0,0.6-0.3,0.6-0.6S32.3,35.7,31.9,35.7z"/>
	<path class="st1" d="M30.1,33.8c0,0.3,0.3,0.6,0.6,0.6h1.2c0.3,0,0.6-0.3,0.6-0.6c0-0.3-0.3-0.6-0.6-0.6h-1.2
		C30.3,33.2,30.1,33.5,30.1,33.8z"/>
	<path class="st1" d="M41.8,28.3h-1.2c-0.3,0-0.6,0.3-0.6,0.6s0.3,0.6,0.6,0.6h1.2c0.3,0,0.6-0.3,0.6-0.6S42.1,28.3,41.8,28.3z"/>
	<path class="st1" d="M39.9,26.4c0,0.3,0.3,0.6,0.6,0.6h1.2c0.3,0,0.6-0.3,0.6-0.6s-0.3-0.6-0.6-0.6h-1.2
		C40.2,25.8,39.9,26.1,39.9,26.4z"/>
	<path class="st1" d="M22,41.8h-1.2c-0.3,0-0.6,0.3-0.6,0.6c0,0.3,0.3,0.6,0.6,0.6H22c0.3,0,0.6-0.3,0.6-0.6
		C22.7,42.1,22.4,41.8,22,41.8z"/>
	<path class="st1" d="M10.3,46.1c0,0.3,0.3,0.6,0.6,0.6h1.2c0.3,0,0.6-0.3,0.6-0.6c0-0.3-0.3-0.6-0.6-0.6h-1.2
		C10.6,45.5,10.3,45.8,10.3,46.1z"/>
	<path class="st1" d="M12.2,48h-1.2c-0.3,0-0.6,0.3-0.6,0.6c0,0.3,0.3,0.6,0.6,0.6h1.2c0.3,0,0.6-0.3,0.6-0.6
		C12.8,48.3,12.5,48,12.2,48z"/>
</g>
</svg>
