<?xml version="1.0" encoding="utf-8"?>
<!-- Generator: Adobe Illustrator 23.0.0, SVG Export Plug-In . SVG Version: 6.00 Build 0)  -->
<svg version="1.1" id="Capa_1" xmlns="http://www.w3.org/2000/svg" xmlns:xlink="http://www.w3.org/1999/xlink" x="0px" y="0px"
	 viewBox="0 0 51.9 67.7" style="enable-background:new 0 0 51.9 67.7;" xml:space="preserve">
<style type="text/css">
	.st0{fill-rule:evenodd;clip-rule:evenodd;fill:#61C5E5;}
</style>
<g id="Delete__x2F__Trash">
	<path class="st0" d="M11.2,57.6c0,0,0.8,3.7,5,3.7h19.1c4.2,0,5-3.7,5-3.7L44.2,21H7.5L11.2,57.6z M33.2,26.5c0-1,0.8-1.8,1.8-1.8
		s1.8,0.8,1.8,1.8L35,54c0,1-0.8,1.8-1.8,1.8c-1,0-1.8-0.8-1.8-1.8L33.2,26.5z M24,26.5c0-1,0.8-1.8,1.8-1.8c1,0,1.8,0.8,1.8,1.8V54
		c0,1-0.8,1.8-1.8,1.8c-1,0-1.8-0.8-1.8-1.8C24,54,24,26.5,24,26.5z M16.7,24.6c1,0,1.8,0.8,1.8,1.8L20.3,54c0,1-0.8,1.8-1.8,1.8
		c-1,0-1.8-0.8-1.8-1.8l-1.8-27.5C14.8,25.4,15.6,24.6,16.7,24.6z M43.1,13.6H35V10c0-2.8-0.9-3.7-3.7-3.7h-11
		c-2.5,0-3.7,1.2-3.7,3.7v3.7H8.6c-1.6,0-2.9,1.2-2.9,2.8c0,1.5,1.3,2.8,2.9,2.8h34.5c1.6,0,2.9-1.2,2.9-2.8
		C46,14.9,44.7,13.6,43.1,13.6z M31.3,13.6h-11l0-3.7h11L31.3,13.6L31.3,13.6z"/>
</g>
</svg>
