<?xml version="1.0" encoding="utf-8"?>
<!-- Generator: Adobe Illustrator 23.0.0, SVG Export Plug-In . SVG Version: 6.00 Build 0)  -->
<svg version="1.1" id="Capa_1" xmlns="http://www.w3.org/2000/svg" xmlns:xlink="http://www.w3.org/1999/xlink" x="0px" y="0px"
	 viewBox="0 0 74 74" style="enable-background:new 0 0 74 74;" xml:space="preserve">
<style type="text/css">
	.st0{fill:#FFFFFF;}
</style>
<g>
	<path class="st0" d="M47.2,26.1c-2.8,0.6-5.7,0.9-8.8,1v8.4h10C48.3,32.3,47.9,29.1,47.2,26.1z"/>
	<path class="st0" d="M22.7,35.6c0.1-3.5,0.5-7,1.3-10.1c-2.5-0.7-4.8-1.6-6.7-2.7c-2.7,3.7-4.3,8.1-4.5,12.8H22.7z"/>
	<path class="st0" d="M22.7,38.4h-10c0.3,4.7,1.8,9.1,4.5,12.8c2-1.1,4.3-2,6.7-2.7C23.3,45.4,22.8,42,22.7,38.4z"/>
	<path class="st0" d="M41.1,14.4c-0.9-0.7-1.8-1.2-2.7-1.5v11.4c2.8-0.1,5.5-0.4,8-0.9c-0.5-1.4-1-2.7-1.6-4
		C43.7,17.3,42.5,15.5,41.1,14.4z"/>
	<path class="st0" d="M24.8,51.3c-2.1,0.6-4,1.3-5.7,2.2c0.2,0.2,0.5,0.5,0.7,0.7c2.7,2.7,6,4.7,9.6,5.9c-1-1.2-1.9-2.6-2.8-4.3
		C25.9,54.4,25.3,52.9,24.8,51.3z"/>
	<path class="st0" d="M29.2,19.4c-0.6,1.2-1.1,2.5-1.6,4c2.5,0.5,5.2,0.8,8,0.9V12.9c-0.9,0.3-1.8,0.7-2.7,1.5
		C31.5,15.5,30.3,17.3,29.2,19.4z"/>
	<path class="st0" d="M51.3,38.4c-0.1,3.5-0.5,7-1.3,10.1c2.5,0.7,4.8,1.6,6.7,2.7c2.7-3.7,4.3-8.1,4.5-12.8H51.3z"/>
	<path class="st0" d="M49.2,22.7c2.1-0.6,4-1.3,5.7-2.2c-0.2-0.2-0.5-0.5-0.7-0.7c-2.7-2.7-6-4.7-9.6-5.9c1,1.2,1.9,2.6,2.8,4.3
		C48.1,19.6,48.7,21.1,49.2,22.7z"/>
	<path class="st0" d="M44.8,54.6c0.6-1.2,1.1-2.5,1.6-4c-2.5-0.5-5.2-0.8-8-0.9v11.4c0.9-0.3,1.8-0.7,2.7-1.5
		C42.5,58.5,43.7,56.7,44.8,54.6z"/>
	<path class="st0" d="M50,25.5c0.8,3.1,1.2,6.6,1.3,10.1h10c-0.3-4.7-1.8-9.1-4.5-12.8C54.7,23.9,52.5,24.8,50,25.5z"/>
	<path class="st0" d="M38.4,38.4v8.4c3.1,0.1,6,0.4,8.8,1c0.7-2.9,1.1-6.1,1.2-9.4H38.4z"/>
	<path class="st0" d="M35.6,35.6v-8.4c-3.1-0.1-6-0.4-8.8-1c-0.7,2.9-1.1,6.1-1.2,9.4H35.6z"/>
	<path class="st0" d="M24.8,22.7c0.5-1.6,1.1-3.2,1.8-4.6c0.8-1.7,1.8-3.1,2.8-4.3c-3.6,1.2-6.8,3.2-9.6,5.9
		c-0.2,0.2-0.5,0.5-0.7,0.7C20.8,21.4,22.7,22.1,24.8,22.7z"/>
	<path class="st0" d="M49.2,51.3c-0.5,1.6-1.1,3.2-1.8,4.6c-0.8,1.7-1.8,3.1-2.8,4.3c3.6-1.2,6.8-3.2,9.6-5.9
		c0.2-0.2,0.5-0.5,0.7-0.7C53.2,52.6,51.3,51.9,49.2,51.3z"/>
	<path class="st0" d="M35.6,38.4h-10c0.1,3.3,0.5,6.5,1.2,9.4c2.8-0.6,5.7-0.9,8.8-1V38.4z"/>
	<path class="st0" d="M32.9,59.6c0.9,0.7,1.8,1.2,2.7,1.5V49.7c-2.8,0.1-5.5,0.4-8,0.9c0.5,1.4,1,2.7,1.6,4
		C30.3,56.7,31.5,58.5,32.9,59.6z"/>
</g>
</svg>
