<?xml version="1.0" encoding="utf-8"?>
<!-- Generator: Adobe Illustrator 23.0.0, SVG Export Plug-In . SVG Version: 6.00 Build 0)  -->
<svg version="1.1" id="Capa_1" xmlns="http://www.w3.org/2000/svg" xmlns:xlink="http://www.w3.org/1999/xlink" x="0px" y="0px"
	 viewBox="0 0 87.7 87.7" style="enable-background:new 0 0 87.7 87.7;" xml:space="preserve">
<style type="text/css">
	.st0{fill:#FAFBFB;}
</style>
<g>
	<g>
		<path class="st0" d="M61.7,34.7c0,0.4,0,0.8,0,1.2c0,12.2-9.3,26.2-26.2,26.2c-5.2,0-10-1.5-14.1-4.1c0.7,0.1,1.5,0.1,2.2,0.1
			c4.3,0,8.3-1.5,11.4-3.9c-4-0.1-7.4-2.7-8.6-6.4c0.6,0.1,1.1,0.2,1.7,0.2c0.8,0,1.7-0.1,2.4-0.3c-4.2-0.8-7.4-4.6-7.4-9v-0.1
			c1.2,0.7,2.7,1.1,4.2,1.2c-2.5-1.6-4.1-4.5-4.1-7.7c0-1.7,0.5-3.3,1.2-4.6c4.5,5.6,11.3,9.2,19,9.6c-0.2-0.7-0.2-1.4-0.2-2.1
			c0-5.1,4.1-9.2,9.2-9.2c2.6,0,5,1.1,6.7,2.9c2.1-0.4,4.1-1.2,5.8-2.2c-0.7,2.2-2.1,4-4.1,5.1c1.9-0.2,3.6-0.7,5.3-1.4
			C65.1,31.8,63.5,33.4,61.7,34.7z"/>
	</g>
</g>
</svg>
