<?xml version="1.0" encoding="utf-8"?>
<!-- Generator: Adobe Illustrator 23.0.0, SVG Export Plug-In . SVG Version: 6.00 Build 0)  -->
<svg version="1.1" id="Capa_1" xmlns="http://www.w3.org/2000/svg" xmlns:xlink="http://www.w3.org/1999/xlink" x="0px" y="0px"
	 viewBox="0 0 87.7 87.7" style="enable-background:new 0 0 87.7 87.7;" xml:space="preserve">
<style type="text/css">
	.st0{fill:#FAFBFB;}
</style>
<path class="st0" d="M64.1,35.2c-0.5-2.2-2.3-3.8-4.5-4.1c-5.2-0.6-10.4-0.6-15.6-0.6c-5.2,0-10.4,0-15.6,0.6
	c-2.2,0.2-4,1.9-4.5,4.1c-0.7,3.1-0.7,6.6-0.7,9.8s0,6.7,0.7,9.8c0.5,2.2,2.3,3.8,4.5,4.1c5.2,0.6,10.4,0.6,15.6,0.6
	c5.2,0,10.4,0,15.6-0.6c2.2-0.2,4-1.9,4.5-4.1c0.7-3.1,0.7-6.6,0.7-9.8S64.8,38.3,64.1,35.2z M38.6,51.4V37.7
	c4.4,2.3,8.8,4.6,13.2,6.9C47.4,46.9,43.1,49.2,38.6,51.4z"/>
</svg>
