<?xml version="1.0" encoding="utf-8"?>
<!-- Generator: Adobe Illustrator 23.0.0, SVG Export Plug-In . SVG Version: 6.00 Build 0)  -->
<svg version="1.1" id="Calque_1" xmlns="http://www.w3.org/2000/svg" xmlns:xlink="http://www.w3.org/1999/xlink" x="0px" y="0px"
	 viewBox="0 0 60 60" style="enable-background:new 0 0 60 60;" xml:space="preserve">
<style type="text/css">
	.st0{fill:#FFFFFF;}
</style>
<g>
	<path class="st0" d="M29.9,44.6c-2,0-4,0-6,0c-1.8,0-2.8-1-2.8-2.8c0-2.5,0-5,0-7.5c0-2,1-2.9,2.9-3c3.9,0,7.8,0,11.7,0
		c2,0,2.9,1,2.9,2.9c0,2.5,0,5,0,7.5c0,1.7-1,2.8-2.8,2.8C33.9,44.6,31.9,44.6,29.9,44.6z M29.9,43.2c2,0,4,0,6,0
		c1,0,1.4-0.4,1.4-1.4c0-1.7,0-3.5,0-5.2c0-0.4-0.1-0.4-0.5-0.3c-1.5,0.3-3,0.7-4.4,1c-0.3,0.1-0.4,0.2-0.5,0.5
		c-0.1,0.7-0.5,1-1.2,1.1c-0.6,0.1-1.2,0-1.8,0c-0.5-0.1-0.9-0.4-1-0.9c-0.1-0.3-0.2-0.5-0.5-0.6c-1.5-0.3-2.9-0.6-4.4-1
		c-0.5-0.1-0.5,0-0.5,0.4c0,1.7,0,3.4,0,5.1c0,1,0.4,1.4,1.4,1.4C25.9,43.2,27.9,43.2,29.9,43.2z M29.9,32.7c-2,0-4.1,0-6.1,0
		c-0.9,0-1.2,0.4-1.3,1.2c0,0.1,0,0.2,0,0.4c0,0.3,0.1,0.5,0.4,0.6c1.5,0.3,3,0.7,4.5,1c0.3,0.1,0.4,0,0.5-0.3
		c0.1-0.6,0.5-0.9,1.1-1c0.6-0.1,1.2-0.1,1.7-0.1c0.6,0.1,1.1,0.4,1.2,1c0.1,0.2,0.1,0.3,0.4,0.2c1.6-0.4,3.1-0.7,4.7-1.1
		c0.1,0,0.3,0,0.3-0.2c0.3-1-0.3-1.9-1.3-1.9C33.9,32.6,31.9,32.7,29.9,32.7z M29.2,36.7c0,0.8-0.1,0.7,0.6,0.7
		c0.9,0,0.8,0.1,0.8-0.6c0-0.9,0.1-0.8-0.7-0.8C29.1,35.9,29.2,35.8,29.2,36.7z"/>
	<path class="st0" d="M8.8,50.5c-2.3,0-4.7,0-7,0c-0.7,0-1-0.2-0.9-0.9c0-1.1-0.1-2.3,0.1-3.4C1.2,44,3,42.2,6,42.4
		c0.4,0,0.6,0.2,0.8,0.5c0.6,0.8,1.2,1.6,1.7,2.4c0.2,0.3,0.3,0.3,0.5,0c0.6-0.8,1.2-1.6,1.7-2.4c0.2-0.3,0.5-0.4,0.9-0.5
		c2.9-0.3,5.1,1.8,5.1,4.7c0,0.8,0,1.6,0,2.5c0,0.7-0.2,0.9-0.9,0.9C13.5,50.5,11.2,50.5,8.8,50.5z M8.8,49.1c2,0,4.1,0,6.1,0
		c0.4,0,0.5-0.1,0.5-0.5c0-0.6,0-1.1,0-1.7c0-1.9-1.3-3.2-3.2-3.2c-0.3,0-0.4,0.1-0.6,0.3c-0.7,1-1.4,2-2.1,2.9
		c-0.5,0.7-0.9,0.7-1.4,0c-0.7-1-1.4-1.9-2.1-2.9c-0.1-0.1-0.2-0.3-0.4-0.3c-1.6-0.1-3.1,1-3.3,2.6c-0.1,0.8,0,1.5-0.1,2.3
		c0,0.4,0.1,0.5,0.5,0.5C4.7,49.2,6.8,49.2,8.8,49.1z"/>
	<path class="st0" d="M51.1,45.5c0.6-0.9,1.2-1.7,1.8-2.6c0.3-0.5,0.7-0.6,1.3-0.6c2.6,0,4.4,1.4,4.8,3.9c0.2,1.2,0.1,2.4,0.1,3.6
		c0,0.4-0.3,0.6-0.6,0.6c-0.1,0-0.3,0-0.4,0c-4.6,0-9.2,0-13.9,0c-0.9,0-1.1-0.2-1.1-1.1c0-1-0.1-2.1,0.1-3.1
		c0.4-2.3,2.1-4.1,5.2-3.9c0.3,0,0.6,0.2,0.8,0.5c0.5,0.8,1.1,1.5,1.7,2.3C50.8,45.2,50.9,45.4,51.1,45.5z M44.4,47.5
		c0,0.3,0,0.7,0,1c0,0.4,0.1,0.6,0.5,0.5c1.5,0,2.9,0,4.4,0c2.6,0,5.2,0,7.9,0c0.4,0,0.5-0.1,0.5-0.5c0-0.5,0-1.1,0-1.6
		c0-1.9-1.3-3.1-3.2-3.2c-0.3,0-0.5,0.1-0.7,0.3c-0.7,1-1.4,1.9-2.1,2.9c-0.5,0.7-0.9,0.7-1.4,0c-0.7-1-1.4-1.9-2.1-2.9
		c-0.1-0.2-0.2-0.3-0.5-0.3c-1,0-1.9,0.3-2.6,1.1C44.5,45.6,44.4,46.6,44.4,47.5z"/>
	<path class="st0" d="M29.8,20.1c-2.3,0-4.7,0-7,0c-0.7,0-1-0.2-0.9-0.9c0-1.2-0.2-2.4,0.1-3.6c0.5-2.2,2.2-3.7,5.1-3.5
		c0.3,0,0.6,0.2,0.8,0.5c0.6,0.8,1.2,1.6,1.7,2.4c0.2,0.3,0.3,0.3,0.5,0c0.6-0.8,1.2-1.6,1.7-2.4c0.2-0.3,0.4-0.5,0.8-0.5
		c3-0.3,4.8,1.6,5.2,3.7c0.2,1.2,0.1,2.5,0.1,3.8c0,0.5-0.4,0.6-0.8,0.6C34.6,20.1,32.2,20.1,29.8,20.1z M29.8,18.8
		c2.1,0,4.1,0,6.2,0c0.4,0,0.5-0.1,0.5-0.5c0-0.6,0-1.1,0-1.7c0-1.9-1.3-3.1-3.1-3.2c-0.4,0-0.6,0.1-0.8,0.4c-0.6,0.9-1.3,1.8-2,2.8
		c-0.5,0.7-1,0.7-1.5,0c-0.7-1-1.4-1.9-2.1-2.9c-0.1-0.1-0.2-0.3-0.4-0.3c-1.5-0.1-2.9,0.9-3.3,2.4c-0.2,0.8,0,1.7-0.1,2.5
		c0,0.4,0.1,0.5,0.5,0.5C25.7,18.8,27.8,18.8,29.8,18.8z"/>
	<path class="st0" d="M30,57.8c-4.1,0-7.9-1-11.5-2.9c-0.1-0.1-0.2-0.1-0.3-0.2c-0.4-0.3-0.5-0.6-0.3-1c0.2-0.4,0.6-0.5,1-0.2
		c1.2,0.7,2.5,1.3,3.8,1.7c6.1,2,12,1.5,17.8-1.4c0.2-0.1,0.4-0.3,0.7-0.2c0.3,0.1,0.5,0.3,0.6,0.6c0.1,0.4-0.2,0.6-0.5,0.7
		c-1.7,0.9-3.5,1.6-5.4,2.1C33.9,57.6,32,57.9,30,57.8z"/>
	<path class="st0" d="M4.4,37c0-2.6,2.1-4.6,4.7-4.4c2.5,0.2,4.3,2.6,3.9,5.1c-0.3,1.5-0.9,2.8-2.1,3.8c-1.5,1.2-3.1,1.2-4.6-0.1
		C5.2,40.4,4.4,38.6,4.4,37z M5.8,37.2c0.1,1.3,0.6,2.5,1.7,3.4c0.9,0.7,1.8,0.7,2.6-0.1c0.9-0.8,1.4-1.9,1.5-3.1
		c0.2-1.7-1.1-3.3-2.8-3.4C7.3,33.9,5.8,35.3,5.8,37.2z"/>
	<path class="st0" d="M29.8,2.2c2.8,0,4.8,2.6,4.2,5.4c-0.3,1.6-1.1,3-2.6,4c-1,0.6-2,0.6-3,0.1c-2.2-1.1-3.5-4.3-2.7-6.6
		C26.3,3.4,28,2.3,29.8,2.2z M26.9,6.9c0.1,1.2,0.6,2.4,1.8,3.4c0.8,0.6,1.6,0.6,2.4,0c1.1-1,1.8-2.3,1.7-3.8
		c-0.1-1.5-1.5-2.8-2.9-2.8C28.2,3.6,26.9,5,26.9,6.9z"/>
	<path class="st0" d="M55.3,37.3c-0.1,1.5-0.8,3.2-2.4,4.3c-1.2,0.9-2.5,0.9-3.7,0.1c-1.9-1.2-3-4.1-2.3-6.2c0.6-2.1,2.7-3.4,4.8-3
		C53.9,32.9,55.4,34.8,55.3,37.3z M48.1,37.1c0,1.1,0.5,2.3,1.6,3.3c1,0.9,2,0.9,2.9-0.1c0.8-0.8,1.3-1.8,1.4-2.9
		c0.2-1.7-1.1-3.3-2.8-3.5C49.6,33.8,48.1,35.2,48.1,37.1z"/>
	<path class="st0" d="M40.2,12.1c0.2,0,0.4,0.1,0.6,0.2c6.4,3.4,10.5,8.7,12.3,15.7c0.1,0.5,0,0.9-0.5,1c-0.4,0.1-0.7-0.1-0.8-0.7
		c-0.8-3.1-2.1-5.9-4.1-8.5c-2-2.7-4.5-4.8-7.5-6.3c-0.2-0.1-0.5-0.2-0.6-0.5C39.4,12.6,39.7,12.1,40.2,12.1z"/>
	<path class="st0" d="M19.6,13.2c0,0.4-0.2,0.5-0.5,0.7c-3.3,1.8-5.9,4.3-8,7.4c-1.5,2.3-2.6,4.9-3.2,7.6c-0.1,0.5-0.4,0.7-0.8,0.7
		c-0.4-0.1-0.6-0.4-0.6-0.9c0-0.1,0-0.2,0.1-0.4c0.6-2.6,1.6-5,3-7.3c2.2-3.5,5.1-6.3,8.6-8.3c0.2-0.1,0.4-0.3,0.7-0.2
		C19.3,12.5,19.6,12.8,19.6,13.2z"/>
	<path class="st0" d="M33.6,30.1c0,0.4-0.2,0.7-0.6,0.7c-0.4,0-0.7-0.2-0.7-0.6c-0.2-0.9-0.5-1.2-1.4-1.2c-0.7,0-1.4,0-2.1,0
		c-0.8,0-1.2,0.3-1.3,1.1c-0.1,0.5-0.4,0.7-0.8,0.7c-0.4,0-0.6-0.3-0.6-0.9c0.1-1.2,1.1-2.2,2.3-2.3c1,0,2-0.1,3,0
		C32.6,27.8,33.6,28.9,33.6,30.1z"/>
</g>
</svg>
