<?xml version="1.0" encoding="utf-8"?>
<!-- Generator: Adobe Illustrator 23.0.0, SVG Export Plug-In . SVG Version: 6.00 Build 0)  -->
<svg version="1.1" id="Calque_1" xmlns="http://www.w3.org/2000/svg" xmlns:xlink="http://www.w3.org/1999/xlink" x="0px" y="0px"
	 viewBox="0 0 60 60" style="enable-background:new 0 0 60 60;" xml:space="preserve">
<style type="text/css">
	.st0{fill:#FFFFFF;}
</style>
<g>
	<g>
		<g>
			<path class="st0" d="M30,17.5c-0.9-0.9-2.3-0.9-3.2,0l-9.4,9.4c-0.2,0.2-0.4,0.2-0.6,0.2l-8.6,0c-2.3,0-4.2,1.9-4.2,4.2l0,11.8
				c0,1.4,1.1,2.5,2.5,2.5c0.3,0,0.6,0,0.8-0.1l0,1c0,0.5,0.4,0.8,0.8,0.8l10.1,0c0.5,0,0.8-0.4,0.8-0.8l0-13.6
				c0-0.2,0.1-0.4,0.2-0.6l10.7-11.5C30.9,19.9,30.9,18.4,30,17.5z M28.8,19.6C28.8,19.6,28.8,19.6,28.8,19.6L18.1,31.2
				c-0.4,0.5-0.7,1.1-0.7,1.7l0,12.8l-8.4,0l0-12.6c0-0.5-0.4-0.8-0.8-0.8c-0.5,0-0.8,0.4-0.8,0.8l0,10.1C7.4,43.6,7,44,6.5,44
				c-0.5,0-0.8-0.4-0.8-0.8l0-11.8c0-1.4,1.1-2.5,2.5-2.5l8.6,0c0.7,0,1.3-0.3,1.8-0.7l9.4-9.4c0.3-0.2,0.7-0.2,0.9,0
				C29.1,19,29.1,19.4,28.8,19.6z"/>
		</g>
	</g>
	<g>
		<g>
			<path class="st0" d="M13.3,29.7c-0.5,0-0.8,0.4-0.8,0.8l0,10.1c0,0.5,0.4,0.8,0.8,0.8c0.5,0,0.8-0.4,0.8-0.8l0-10.1
				C14.1,30.1,13.7,29.7,13.3,29.7z"/>
		</g>
	</g>
	<g>
		<g>
			<path class="st0" d="M52,5.3l-29.5,0c-1.4,0-2.5,1.1-2.5,2.5l0,12.6c0,0.5,0.4,0.8,0.8,0.8s0.8-0.4,0.8-0.8l0-10.1l31.1,0l0,20.2
				c0,0.5-0.3,0.8-0.8,0.8l-28.7,0c-0.5,0-0.8,0.4-0.8,0.8c0,0.5,0.4,0.8,0.8,0.8l28.7,0c1.4,0,2.5-1.1,2.5-2.5l0-22.7
				C54.5,6.4,53.4,5.3,52,5.3z M52.8,8.6l-31.1,0l0-0.8C21.7,7.4,22,7,22.5,7L52,7c0.5,0,0.8,0.4,0.8,0.8L52.8,8.6z"/>
		</g>
	</g>
	<g>
		<g>
			<path class="st0" d="M50.3,16c-0.5,0-0.8,0.4-0.8,0.8l0,12c0,0.5,0.4,0.8,0.8,0.8c0.5,0,0.8-0.4,0.8-0.8l0-12
				C51.1,16.4,50.8,16,50.3,16z"/>
		</g>
	</g>
	<g>
		<g>
			<path class="st0" d="M46.9,21.3c-0.5,0-0.8,0.4-0.8,0.8l0,6.7c0,0.5,0.4,0.8,0.8,0.8c0.5,0,0.8-0.4,0.8-0.8l0-6.7
				C47.8,21.6,47.4,21.3,46.9,21.3z"/>
		</g>
	</g>
	<g>
		<g>
			<path class="st0" d="M43.6,19.6c-0.5,0-0.8,0.4-0.8,0.8l0,8.4c0,0.5,0.4,0.8,0.8,0.8c0.5,0,0.8-0.4,0.8-0.8l0-8.4
				C44.4,20,44,19.6,43.6,19.6z"/>
		</g>
	</g>
	<g>
		<g>
			<path class="st0" d="M40.2,24.6c-0.5,0-0.8,0.4-0.8,0.8l0,3.4c0,0.5,0.4,0.8,0.8,0.8c0.5,0,0.8-0.4,0.8-0.8l0-3.4
				C41,25,40.7,24.6,40.2,24.6z"/>
		</g>
	</g>
	<g>
		<g>
			<path class="st0" d="M38.4,42.7l-1.7,0c-0.5,0-0.8,0.4-0.8,0.8c0,0.5,0.4,0.8,0.8,0.8l1.7,0c0.5,0,0.8-0.4,0.8-0.8
				C39.3,43.1,38.9,42.7,38.4,42.7z"/>
		</g>
	</g>
	<g>
		<path class="st0" d="M50.8,46.8c2.8,0,4.7,1.5,5.1,4.2c0.2,1.3,0.1,2.6,0,3.9c0,0.4-0.3,0.6-0.7,0.6c-0.1,0-0.3,0-0.4,0
			c-5,0-9.9,0-14.9,0c-1,0-1.2-0.2-1.1-1.2c0-1.1-0.1-2.2,0.1-3.4c0.4-2.4,2.3-4.4,5.5-4.2C44.8,46.8,50.2,46.8,50.8,46.8z
			 M40.3,52.4c0,0.4,0,0.7,0,1c0,0.4,0.1,0.6,0.6,0.6c1.6,0,3.1,0,4.7,0c2.8,0,5.6,0,8.4,0c0.4,0,0.6-0.1,0.6-0.6c0-0.6,0-1.2,0-1.8
			c0-2-1.4-3.4-3.4-3.4c-0.3,0-7,0-7.2,0c-1.1,0-2,0.3-2.8,1.2C40.3,50.3,40.2,51.4,40.3,52.4z"/>
		<path class="st0" d="M52,40.5c-0.1,1.6-0.9,3.4-2.6,4.7c-1.3,0.9-2.7,1-4,0.1c-2-1.3-3.2-4.4-2.5-6.6c0.7-2.2,2.9-3.6,5.1-3.3
			C50.4,35.8,52.1,37.8,52,40.5z M44.2,40.2c0,1.2,0.6,2.5,1.7,3.5c1,1,2.1,0.9,3.1-0.1c0.9-0.9,1.4-1.9,1.5-3.2
			c0.3-1.8-1.2-3.6-3-3.7C45.8,36.6,44.2,38.2,44.2,40.2z"/>
	</g>
	<g>
		<path class="st0" d="M31.2,46.8c2.8,0,4.7,1.5,5.1,4.2c0.2,1.3,0.1,2.6,0,3.9c0,0.4-0.3,0.6-0.7,0.6c-0.1,0-0.3,0-0.4,0
			c-5,0-9.9,0-14.9,0c-1,0-1.2-0.2-1.1-1.2c0-1.1-0.1-2.2,0.1-3.4c0.4-2.4,2.3-4.4,5.5-4.2C25.2,46.8,30.6,46.8,31.2,46.8z
			 M20.7,52.4c0,0.4,0,0.7,0,1c0,0.4,0.1,0.6,0.6,0.6c1.6,0,3.1,0,4.7,0c2.8,0,5.6,0,8.4,0c0.4,0,0.6-0.1,0.6-0.6c0-0.6,0-1.2,0-1.8
			c0-2-1.4-3.4-3.4-3.4c-0.3,0-7,0-7.2,0c-1.1,0-2,0.3-2.8,1.2C20.7,50.3,20.6,51.4,20.7,52.4z"/>
		<path class="st0" d="M32.4,40.5c-0.1,1.6-0.9,3.4-2.6,4.7c-1.3,0.9-2.7,1-4,0.1c-2-1.3-3.2-4.4-2.5-6.6c0.7-2.2,2.9-3.6,5.1-3.3
			C30.9,35.8,32.5,37.8,32.4,40.5z M24.7,40.2c0,1.2,0.6,2.5,1.7,3.5c1,1,2.1,0.9,3.1-0.1c0.9-0.9,1.4-1.9,1.5-3.2
			c0.3-1.8-1.2-3.6-3-3.7C26.3,36.6,24.7,38.2,24.7,40.2z"/>
	</g>
	<path class="st0" d="M16.6,20c-0.1,1.6-0.9,3.4-2.6,4.7c-1.3,0.9-2.7,1-4,0.1c-2-1.3-3.2-4.4-2.5-6.6c0.7-2.2,2.9-3.6,5.1-3.3
		C15.1,15.2,16.7,17.3,16.6,20z M8.9,19.7c0,1.2,0.6,2.5,1.7,3.5c1,1,2.1,0.9,3.1-0.1c0.9-0.9,1.4-1.9,1.5-3.2
		c0.3-1.8-1.2-3.6-3-3.7C10.5,16.1,8.9,17.7,8.9,19.7z"/>
</g>
</svg>
