<?xml version="1.0" encoding="utf-8"?>
<!-- Generator: Adobe Illustrator 23.0.0, SVG Export Plug-In . SVG Version: 6.00 Build 0)  -->
<svg version="1.1" id="Calque_1" xmlns="http://www.w3.org/2000/svg" xmlns:xlink="http://www.w3.org/1999/xlink" x="0px" y="0px"
	 viewBox="0 0 68.2 51.1" style="enable-background:new 0 0 68.2 51.1;" xml:space="preserve">
<style type="text/css">
	.st0{fill:#FFFFFF;}
</style>
<g>
	<g>
		<g>
			
				<rect x="42.1" y="32.7" transform="matrix(0.9964 -8.453003e-02 8.453003e-02 0.9964 -2.6686 3.9144)" class="st0" width="5.6" height="1.6"/>
		</g>
	</g>
	<g>
		<g>
			
				<rect x="43.4" y="36.4" transform="matrix(0.5729 -0.8197 0.8197 0.5729 -13.546 53.1275)" class="st0" width="1.6" height="6.3"/>
		</g>
	</g>
	<g>
		<g>
			<g>
				<path class="st0" d="M35.1,11.2c-3.5,0.3-6.1,3.4-5.8,6.9c0.3,3.5,3.4,6.1,6.9,5.8c3.5-0.3,6.1-3.4,5.8-6.9
					C41.8,13.5,38.7,10.9,35.1,11.2z M36.1,22.4c-2.6,0.2-5-1.7-5.2-4.4s1.7-5,4.4-5.2c2.6-0.2,5,1.7,5.2,4.4
					C40.7,19.8,38.7,22.1,36.1,22.4z"/>
			</g>
		</g>
		<g>
			<g>
				<path class="st0" d="M23.2,32.2c-5.1-1.5-8-6.9-6.5-12c0.6-2,1.8-3.7,3.4-4.9l-1-1.3c-4.9,3.7-5.9,10.8-2.2,15.7
					c1.4,1.9,3.5,3.3,5.8,4c2,0.6,3.5,2.4,3.7,4.5l1.6-0.1C27.8,35.4,25.8,33,23.2,32.2z"/>
			</g>
		</g>
		<g>
			<g>
				<g>
					<path class="st0" d="M65.6,15.3C65.6,15.3,65.6,15.3,65.6,15.3L65.6,15.3l-3.1-0.5c-0.4-0.1-0.7-0.5-0.7-0.9
						c0-0.2,0.2-0.4,0.3-0.5l2.6-1.8c0.4-0.3,0.4-0.8,0.2-1.1l-2.8-3.9c-0.3-0.4-0.8-0.4-1.1-0.2l-2.6,1.8c-0.4,0.3-0.9,0.2-1.1-0.2
						c-0.1-0.2-0.2-0.4-0.1-0.6l0.5-3.1c0.1-0.4-0.2-0.9-0.7-0.9c0,0,0,0,0,0l-4.7-0.8c-0.4-0.1-0.9,0.2-0.9,0.7c0,0,0,0,0,0
						l-0.5,3.1c-0.1,0.4-0.5,0.7-0.9,0.7c-0.2,0-0.4-0.2-0.5-0.3l-1.8-2.6c-0.3-0.4-0.8-0.4-1.1-0.2l-2.5,1.7
						c-1.1-0.1-2.2-0.2-3.3-0.1C33.6,6,27.9,11.5,26.9,18.6c0,0.2,0,0.5-0.1,0.7l-0.2,0c-0.4,0-0.7,0.2-0.8,0.6l-0.6,2.6L23,20.9
						c-0.3-0.2-0.7-0.2-1,0.1l-2.5,2.3c-0.3,0.3-0.3,0.7-0.1,1l1.5,2.3L18.2,27c-0.4,0.1-0.6,0.4-0.7,0.8L17.5,31
						c0,0.4,0.2,0.7,0.6,0.8l2.6,0.6l-1.6,2.2c-0.2,0.3-0.2,0.7,0.1,1l2.3,2.5c0.3,0.3,0.7,0.3,1,0.1l2.3-1.5l0.5,2.7
						c0.1,0.4,0.4,0.7,0.8,0.7l3.2,0.1c0.4,0,0.7-0.2,0.8-0.6l0.6-2.6l2.2,1.6c0.3,0.2,0.7,0.2,1-0.1l1.3-1.2L35,39.6
						c0,1.1,0.5,2.2,1.5,2.8l-0.1,4.5c-0.1,1.8,1.3,3.2,3.1,3.3l3.2,0.1c1.8,0.1,3.2-1.3,3.3-3.1l0.1-4.5c1-0.5,1.6-1.6,1.7-2.7
						l0.1-3.2c0.1-1.3,0.8-2.5,2-3.2c0.7-0.4,1.3-0.9,1.9-1.4l-1-1.2c-0.5,0.5-1.1,0.9-1.7,1.2c-1.6,0.9-2.7,2.7-2.7,4.5l-0.1,3.2
						c0,0.9-0.8,1.6-1.7,1.6l-6.4-0.2c-0.9,0-1.6-0.8-1.6-1.7l0.1-3.2c0-1.8-0.9-3.6-2.4-4.6c-6.2-4.2-7.9-12.6-3.7-18.9
						c2.6-3.9,7-6.1,11.6-6c0,0,0,0.1,0,0.1c0,0.2,0,0.4,0.1,0.6l1.8,2.6c0.2,0.3,0.2,0.6,0,0.9c-0.2,0.3-0.5,0.4-0.8,0.4l-3.1-0.5
						c-0.4-0.1-0.9,0.2-0.9,0.7c0,0,0,0,0,0l-0.8,4.7c-0.1,0.4,0.2,0.9,0.7,0.9c0,0,0,0,0,0l3.1,0.5c0.4,0.1,0.7,0.5,0.7,0.9
						c0,0.2-0.2,0.4-0.3,0.5L40.1,21c-0.4,0.3-0.4,0.8-0.2,1.1l2.8,3.9c0.3,0.4,0.8,0.4,1.1,0.2l2.6-1.8c0.4-0.3,0.9-0.2,1.1,0.2
						c0.1,0.2,0.2,0.4,0.1,0.6L47,28.4c-0.1,0.4,0.2,0.9,0.7,0.9c0,0,0,0,0,0l4.7,0.8c0,0,0.1,0,0.1,0c0.4,0,0.7-0.3,0.8-0.7
						l0.5-3.1c0.1-0.4,0.5-0.7,0.9-0.7c0.2,0,0.4,0.2,0.5,0.3l1.8,2.6c0.3,0.4,0.8,0.4,1.1,0.2l3.9-2.8c0.4-0.3,0.4-0.8,0.2-1.1
						l-1.8-2.6c-0.2-0.3-0.2-0.6,0-0.9c0.2-0.3,0.5-0.4,0.8-0.4l3.1,0.5c0.4,0.1,0.9-0.2,0.9-0.7c0,0,0,0,0,0l0.8-4.7
						C66.3,15.8,66,15.4,65.6,15.3z M38.1,42.9l6.4,0.2l-0.1,1.6l-6.4-0.2L38.1,42.9z M38,46.1l6.4,0.2l0,0.8c0,0.9-0.8,1.6-1.7,1.6
						l-3.2-0.1c-0.9,0-1.6-0.8-1.6-1.7L38,46.1z M32.1,32.1c0.4,0.4,0.9,0.7,1.3,1c0.7,0.5,1.3,1.2,1.6,2.1l-1.8,1.7l-1.6-1.2
						c-0.7-0.5-1.7-0.4-2.2,0.3c-0.1,0.2-0.2,0.4-0.3,0.6l-0.5,2l-1.9-0.1l-0.4-2c-0.2-0.9-1-1.5-1.9-1.3c-0.2,0-0.4,0.1-0.6,0.2
						l-1.7,1.1L20.8,35l1.2-1.6c0.5-0.7,0.4-1.7-0.3-2.2c-0.2-0.1-0.4-0.2-0.6-0.3l-2-0.5l0.1-1.9l2-0.4c0.9-0.2,1.5-1,1.3-1.9
						c0-0.2-0.1-0.4-0.2-0.6L21.1,24l1.5-1.4l1.6,1.2c0.7,0.5,1.7,0.4,2.2-0.3c0.1-0.2,0.2-0.4,0.3-0.6l0.2-0.7
						c0.1,0.9,0.3,1.8,0.6,2.7c-2.6,0.2-4.6,2.6-4.4,5.2c0.2,2.6,2.6,4.6,5.2,4.4C29.9,34.4,31.3,33.5,32.1,32.1z M30.9,30.9
						c-0.7,1.6-2.5,2.4-4.2,1.8c-1.6-0.7-2.4-2.5-1.8-4.2c0.5-1.3,1.7-2.1,3.1-2c0,0,0,0,0,0C28.7,28.1,29.7,29.6,30.9,30.9z
						 M64,19.9l-2.3-0.4c-1.3-0.2-2.6,0.6-2.8,2c-0.1,0.6,0,1.3,0.4,1.8l1.3,1.9L58,27l-1.3-1.9c-0.8-1.1-2.3-1.3-3.3-0.6
						c-0.5,0.4-0.9,0.9-1,1.6l-0.4,2.3l-3.2-0.6l0.4-2.3c0.2-1.3-0.6-2.6-2-2.8c-0.6-0.1-1.3,0-1.8,0.4l-1.9,1.3l-1.8-2.6l1.9-1.3
						c1.1-0.8,1.3-2.3,0.6-3.3c-0.4-0.5-0.9-0.9-1.6-1l-2.3-0.4l0.6-3.2l2.3,0.4c1.3,0.2,2.6-0.6,2.8-2c0.1-0.6,0-1.3-0.4-1.8
						l-1.4-1.9l2.6-1.8l1.3,1.9c0.8,1.1,2.3,1.3,3.3,0.6c0.5-0.4,0.9-0.9,1-1.6l0.4-2.3L56,4.7L55.6,7c-0.2,1.3,0.6,2.6,2,2.8
						c0.6,0.1,1.3,0,1.8-0.4l1.9-1.3l1.8,2.6L61.2,12c-1.1,0.8-1.3,2.3-0.6,3.3c0.4,0.5,0.9,0.9,1.6,1l2.3,0.4L64,19.9z"/>
				</g>
			</g>
			<g>
				<g>
					
						<rect x="2.2" y="19.1" transform="matrix(0.9462 -0.3237 0.3237 0.9462 -6.1481 2.8623)" class="st0" width="6.6" height="1.6"/>
				</g>
			</g>
			<g>
				<g>
					<rect x="5.4" y="9.6" transform="matrix(0.5104 -0.86 0.86 0.5104 -8.1899 11.6706)" class="st0" width="1.6" height="6.9"/>
				</g>
			</g>
			<g>
				<g>
					
						<rect x="10.2" y="5.7" transform="matrix(0.9444 -0.3287 0.3287 0.9444 -2.3435 4.1232)" class="st0" width="1.6" height="6.6"/>
				</g>
			</g>
		</g>
	</g>
</g>
</svg>
