<?xml version="1.0" encoding="utf-8"?>
<!-- Generator: Adobe Illustrator 23.0.0, SVG Export Plug-In . SVG Version: 6.00 Build 0)  -->
<svg version="1.1" id="Calque_1" xmlns="http://www.w3.org/2000/svg" xmlns:xlink="http://www.w3.org/1999/xlink" x="0px" y="0px"
	 viewBox="0 0 60 60" style="enable-background:new 0 0 60 60;" xml:space="preserve">
<style type="text/css">
	.st0{fill:#FFFFFF;}
</style>
<path id="XMLID_2_" class="st0" d="M27.4,18.7c0.3,0.7,0.9,1.9,2.6,1.9s2.3-1.3,2.6-1.9c0-0.1,0.8-1.7,0.8-1.7
	c2.3-4.4,3.6-7.5,3.6-9.3c0-3.9-3.2-7.1-7.1-7.1c-3.9,0-7.1,3.2-7.1,7.1c0,1.8,1.4,4.9,3.6,9.3C26.5,17,27.3,18.6,27.4,18.7z
	 M30,3.1c2.5,0,4.6,2.1,4.6,4.6c0,1.6-2.4,6.2-3.4,8.2c0,0-1.1,2.1-1.1,2.2c0,0-0.1,0-0.1,0c-0.1-0.1-1.1-2.2-1.1-2.2
	c-1-2-3.4-6.6-3.4-8.2C25.4,5.1,27.5,3.1,30,3.1z M24.2,31.8c0,3.2,2.6,5.8,5.8,5.8c3.2,0,5.8-2.6,5.8-5.8c0-3.2-2.6-5.8-5.8-5.8
	C26.8,26,24.2,28.6,24.2,31.8z M33.3,31.8c0,1.8-1.5,3.3-3.3,3.3c-1.8,0-3.3-1.5-3.3-3.3c0-1.8,1.5-3.3,3.3-3.3S33.3,30,33.3,31.8z
	 M44.1,39.3c-3.9,0-7.1,3.2-7.1,7.1c0,1.8,1.4,4.9,3.6,9.3c0,0,0.8,1.6,0.8,1.7c0.3,0.7,0.9,1.9,2.6,1.9c1.7,0,2.3-1.3,2.6-1.9
	c0-0.1,0.8-1.7,0.8-1.7c2.3-4.4,3.6-7.5,3.6-9.3C51.2,42.5,48,39.3,44.1,39.3z M45.3,54.6c0,0-1.1,2.1-1.1,2.2c0,0-0.1,0-0.1,0
	c-0.1-0.1-1.1-2.2-1.1-2.2c-1-2-3.4-6.6-3.4-8.2c0-2.5,2.1-4.6,4.6-4.6c2.5,0,4.6,2.1,4.6,4.6C48.7,48,46.3,52.6,45.3,54.6z
	 M56.3,31.8c0,3-0.5,5.9-1.5,8.7c-0.2,0.5-0.7,0.8-1.2,0.8c-0.1,0-0.3,0-0.4-0.1c-0.7-0.2-1-1-0.8-1.6c0.9-2.5,1.3-5.2,1.3-7.9
	c0-9.2-5.1-17.4-13.4-21.4c-0.6-0.3-0.9-1.1-0.6-1.7c0.3-0.6,1.1-0.9,1.7-0.6c4.4,2.1,8.1,5.4,10.7,9.6
	C54.9,21.9,56.3,26.8,56.3,31.8z M28.6,7.7c0-0.7,0.6-1.3,1.3-1.3l0.3,0c0.7,0,1.3,0.6,1.3,1.3c0,0.7-0.6,1.3-1.3,1.3l-0.3,0
	C29.2,8.9,28.6,8.4,28.6,7.7z M9.8,35c0.3,0.7,0.9,1.9,2.6,1.9c1.7,0,2.3-1.3,2.6-1.9c0-0.1,0.8-1.7,0.8-1.7
	c2.3-4.4,3.6-7.5,3.6-9.3c0-3.9-3.2-7.1-7.1-7.1S5.4,20.1,5.4,24c0,1.8,1.4,4.9,3.6,9.3C9,33.3,9.8,34.9,9.8,35z M12.5,19.4
	c2.5,0,4.6,2.1,4.6,4.6c0,1.6-2.4,6.2-3.4,8.2c0,0-1.1,2.1-1.1,2.2c0,0-0.1,0-0.1,0c-0.1-0.1-1.1-2.2-1.1-2.2c-1-2-3.4-6.6-3.4-8.2
	C7.9,21.5,9.9,19.4,12.5,19.4z M45.5,46.4c0,0.7-0.6,1.3-1.3,1.3l-0.3,0c-0.7,0-1.3-0.6-1.3-1.3c0-0.7,0.6-1.3,1.3-1.3l0.3,0
	C45,45.1,45.5,45.7,45.5,46.4z M37.3,55.8c0.2,0.7-0.2,1.4-0.9,1.5c-2.1,0.5-4.3,0.8-6.4,0.8c-13.4,0-24.7-10-26.2-23.4
	c-0.1-0.7,0.4-1.3,1.1-1.4c0.7-0.1,1.3,0.4,1.4,1.1c1.4,12,11.5,21.1,23.7,21.1c2,0,3.9-0.2,5.8-0.7C36.5,54.7,37.2,55.2,37.3,55.8z
	 M11.1,24c0-0.7,0.6-1.3,1.3-1.3l0.3,0c0.7,0,1.3,0.6,1.3,1.3c0,0.7-0.6,1.3-1.3,1.3l-0.3,0C11.6,25.3,11.1,24.7,11.1,24z
	 M12.1,14.2c-0.5-0.5-0.4-1.3,0.1-1.8c1.9-1.7,4-3.2,6.3-4.3c0.6-0.3,1.4,0,1.7,0.6c0.3,0.6,0,1.4-0.6,1.7c-2.1,1-4,2.3-5.7,3.9
	c-0.2,0.2-0.5,0.3-0.9,0.3C12.7,14.6,12.4,14.5,12.1,14.2z"/>
</svg>
